<svg xmlns="http://www.w3.org/2000/svg" viewBox="0 0 977.95 450.71"><defs><style>.cls-1{fill:#ce0000;}</style></defs><title>Plan view</title><g id="Plan_view" data-name="Plan view"><path class="cls-1" d="M228.45,314.43a1.84,1.84,0,1,0,1.84,1.84A1.84,1.84,0,0,0,228.45,314.43Zm0,2.83a1,1,0,1,1,1-1A1,1,0,0,1,228.45,317.26Zm-6.2-2.83a1.84,1.84,0,1,0,1.84,1.84A1.84,1.84,0,0,0,222.26,314.43Zm0,2.83a1,1,0,1,1,1-1A1,1,0,0,1,222.26,317.26Zm-87.82-90.65a1.84,1.84,0,1,0,1.84,1.84A1.84,1.84,0,0,0,134.44,226.61Zm0,2.83a1,1,0,1,1,1-1A1,1,0,0,1,134.44,229.44Zm0-5.35a1.84,1.84,0,1,0-1.84-1.84A1.84,1.84,0,0,0,134.44,224.1Zm0-2.83a1,1,0,1,1-1,1A1,1,0,0,1,134.44,221.26Zm87.82-85a1.84,1.84,0,1,0-1.84-1.84A1.84,1.84,0,0,0,222.26,136.28Zm0-2.83a1,1,0,1,1-1,1A1,1,0,0,1,222.26,133.45Zm6.2,2.83a1.84,1.84,0,1,0-1.84-1.84A1.84,1.84,0,0,0,228.45,136.28Zm0-2.83a1,1,0,1,1-1,1A1,1,0,0,1,228.45,133.45ZM31,232.34H23.72v7.23H31Zm-.85,6.38H24.57v-5.53H30.1ZM232.23,420.18v7.23h7.23v-7.23Zm6.38,6.38h-5.53V421h5.53ZM217.79,30.41V23.18h-7.23v7.23ZM211.42,24h5.53v5.53h-5.53Zm13.94,419.81a1.63,1.63,0,1,0-1.63-1.63A1.63,1.63,0,0,0,225.35,443.83Zm0-2.41a.78.78,0,1,1-.78.78A.78.78,0,0,1,225.35,441.42Zm0-434.55A1.63,1.63,0,1,0,227,8.5,1.63,1.63,0,0,0,225.35,6.87Zm0,2.41a.78.78,0,1,1,.78-.78A.78.78,0,0,1,225.35,9.28ZM8.5,227a1.63,1.63,0,1,0-1.63-1.63A1.63,1.63,0,0,0,8.5,227Zm0-2.41a.78.78,0,1,1-.78.78A.78.78,0,0,1,8.5,224.57Zm400.39-59,6.8-2.44-2.44-6.8-6.8,2.44Zm5.72-3-5.2,1.87-1.86-5.2,5.2-1.87Zm-8.16,129.23,6.8,2.44,2.44-6.8-6.8-2.44Zm8.16-3.85-1.87,5.2-5.2-1.87,1.87-5.2ZM75.27,77.11A1.84,1.84,0,0,0,76.57,74,1.89,1.89,0,0,0,74,74a1.84,1.84,0,0,0,1.3,3.15Zm-.7-2.54a1,1,0,0,1,1.4,0h0A1,1,0,0,1,76,76a1,1,0,0,1-1.4,0,1,1,0,0,1,0-1.4ZM374.14,374.13a1.85,1.85,0,0,0,0,2.61h0a1.84,1.84,0,1,0,2.61-2.61A1.89,1.89,0,0,0,374.14,374.13Zm2,2a1,1,0,0,1-1.4-1.4,1,1,0,0,1,1.4,0A1,1,0,0,1,376.14,376.14ZM374.14,74a1.84,1.84,0,1,0,2.61,0A1.89,1.89,0,0,0,374.14,74Zm2,2a1,1,0,0,1-1.4,0,1,1,0,1,1,1.4,0ZM75.27,377.28a1.84,1.84,0,0,0,1.3-3.14,1.89,1.89,0,0,0-2.61,0,1.84,1.84,0,0,0,1.3,3.14Zm-.7-2.54a1,1,0,0,1,1.4,0,1,1,0,1,1-1.4,0ZM355.38,175.2l-.16-.41-17.84,7.39.15.39a119.46,119.46,0,0,1,7.22,30.08l0,.43,19.11-2.51,0-.41A138.65,138.65,0,0,0,355.38,175.2Zm-9.83,36.92a120.3,120.3,0,0,0-7.08-29.48l16.27-6.74A137.77,137.77,0,0,1,363,209.83Zm-.77,26a119.53,119.53,0,0,1-7.16,30.11l-.15.39,17.75,7.36.16-.41a138.64,138.64,0,0,0,8.48-35l0-.41-19.08-2.5Zm18.19,2.8a137.79,137.79,0,0,1-8.23,33.93l-16.18-6.71a120.36,120.36,0,0,0,7-29.5ZM179.58,225.35a45.83,45.83,0,0,0,45.78,45.78c19.84,0,50.84-18.16,65.73-29.61,3.67-2.82,4.15-10.12,4.15-16.17,0-3.89,0-13-4.15-16.17-14.93-11.45-46-29.61-65.73-29.61A45.83,45.83,0,0,0,179.58,225.35Zm114.81,0c0,3.44,0,12.56-3.81,15.5-14.8,11.38-45.59,29.43-65.21,29.43a44.93,44.93,0,0,1,0-89.86c19.54,0,50.37,18.05,65.21,29.43C294.38,212.78,294.38,221.59,294.38,225.35Zm-109.44,0c0,23.91,17.31,41.26,41.16,41.26,10.88,0,24.14-5.11,33.36-9.4a161.21,161.21,0,0,0,28.28-16.68c3.45-2.66,3.9-9.51,3.9-15.18,0-3.65,0-12.19-3.9-15.18a162.48,162.48,0,0,0-28.29-16.67c-9.22-4.29-22.49-9.41-33.35-9.41C202.25,184.09,184.94,201.45,184.94,225.35Zm99.25.42h6.6c0,1.1,0,2.65-.15,4.35l-6.53-1.21C284.17,227.86,284.19,226.8,284.2,225.78Zm0-.85c0-.87,0-2-.08-3.16l6.53-1.19c.12,1.66.14,3.2.14,4.35Zm-.13-4c-.06-.74-.14-1.51-.25-2.28l6.26-2.28a28,28,0,0,1,.51,3.37Zm-.72,4.44c0,2.9,0,10.6-3.2,13.06-11.88,9.14-36.13,22-52.85,22C205.9,260.42,191,246,191,225.35s14.94-35.06,36.34-35.06c16.66,0,40.94,12.87,52.85,22C283.35,214.75,283.35,222.18,283.35,225.35Zm.7,4.42,6.52,1.21a28.53,28.53,0,0,1-.52,3.37l-6.25-2.28C283.91,231.32,284,230.55,284.05,229.77Zm-57.95-44.83c11,0,38.07,8.23,61.12,25.9a8.57,8.57,0,0,1,2.64,4.68l-6.2,2.26c-.47-2.51-1.34-4.89-3-6.16a134.53,134.53,0,0,0-24.4-14.37c-7.79-3.56-19.13-7.81-29-7.81-21.9,0-37.19,14.77-37.19,35.91s15.29,35.91,37.19,35.91c9.85,0,21.2-4.24,29-7.8a133.61,133.61,0,0,0,24.39-14.38c1.63-1.25,2.52-3.54,3-6.16l6.19,2.25a8.62,8.62,0,0,1-2.62,4.68c-23,17.67-50.06,25.9-61.12,25.9-23.36,0-40.31-17-40.31-40.41S202.75,184.94,226.11,184.94Zm11,5.08a2.35,2.35,0,0,0,.48.05,2,2,0,0,0,.83-.17,1.38,1.38,0,0,0,.8-.94,1.68,1.68,0,0,0-1.49-1.84,1.7,1.7,0,0,0-2.12,1.07A1.68,1.68,0,0,0,237.09,190Zm.45-2.08c.53.11.91.5.84.83a.55.55,0,0,1-.33.35,1.26,1.26,0,0,1-.78.06c-.52-.11-.91-.5-.84-.83S237,187.83,237.54,187.95Zm-.31,75.7a2.33,2.33,0,0,0,.49-.05,2.1,2.1,0,0,0,1.15-.65,1.38,1.38,0,0,0,.34-1.19,1.88,1.88,0,0,0-3.6.78A1.56,1.56,0,0,0,237.23,263.64Zm0-2.13c.52-.11,1,.08,1.1.41a.55.55,0,0,1-.15.45,1.26,1.26,0,0,1-.68.38c-.52.11-1-.08-1.1-.41S236.75,261.63,237.27,261.51Zm4.08-70.3a2.33,2.33,0,0,0,.49.05,1.56,1.56,0,0,0,1.62-1.12,1.88,1.88,0,0,0-3.6-.78,1.38,1.38,0,0,0,.34,1.19A2.1,2.1,0,0,0,241.34,191.21Zm-.66-1.66c.06-.27.41-.45.81-.45a1.4,1.4,0,0,1,.3,0c.52.11.91.5.84.83s-.59.53-1.1.41a1.26,1.26,0,0,1-.68-.38A.55.55,0,0,1,240.69,189.55Zm.06,72.79a1.93,1.93,0,0,0,.7.13,2.26,2.26,0,0,0,.62-.09,1.7,1.7,0,0,0,1.37-1.93,1.67,1.67,0,0,0-2.18-.93,2.1,2.1,0,0,0-1.1.72,1.31,1.31,0,0,0,.6,2.1Zm.08-1.58a1.26,1.26,0,0,1,.66-.42,1.4,1.4,0,0,1,.38-.05.73.73,0,0,1,.75.4c.09.33-.27.74-.78.88a1.25,1.25,0,0,1-.78,0,.47.47,0,0,1-.22-.79Zm-39.28-63.57h.16a2.11,2.11,0,0,0,1.2-.56,1.68,1.68,0,0,0,.35-2.34h0a1.7,1.7,0,0,0-2.36.15,2.1,2.1,0,0,0-.66,1.14,1.38,1.38,0,0,0,.3,1.2A1.35,1.35,0,0,0,201.55,197.19Zm-.48-1.46a1.27,1.27,0,0,1,.4-.67,1.23,1.23,0,0,1,.79-.34.49.49,0,0,1,.37.14c.23.25.09.78-.3,1.14a1.27,1.27,0,0,1-.7.34.47.47,0,0,1-.56-.61Zm-3,4.24h.16a2.11,2.11,0,0,0,1.2-.56,2,2,0,0,0,.69-1.37,1.28,1.28,0,0,0-1.27-1.38,2.17,2.17,0,0,0-2.09,1.7,1.38,1.38,0,0,0,.3,1.2A1.35,1.35,0,0,0,198.12,200Zm-.48-1.46a1.27,1.27,0,0,1,.4-.67,1.22,1.22,0,0,1,.78-.34h0a.48.48,0,0,1,.34.14h0a.49.49,0,0,1,.11.35,1.19,1.19,0,0,1-.41.79,1.27,1.27,0,0,1-.7.34.47.47,0,0,1-.56-.61Zm4.62,58.33a1.33,1.33,0,0,0,1-.42h0a1.68,1.68,0,0,0-.35-2.34,2.11,2.11,0,0,0-1.2-.56,1.38,1.38,0,0,0-1.17.41,1.68,1.68,0,0,0,.35,2.34A2,2,0,0,0,202.26,256.84Zm-1.09-2.33a.5.5,0,0,1,.38-.14h.08a1.27,1.27,0,0,1,.7.34c.39.36.53.89.3,1.14s-.77.16-1.16-.2S200.94,254.76,201.17,254.51Zm-3.71-1a2.1,2.1,0,0,0,1.19.56h.16a1.35,1.35,0,0,0,1-.42h0a1.68,1.68,0,0,0-.35-2.34,2.11,2.11,0,0,0-1.2-.56,1.4,1.4,0,0,0-1.17.41,1.37,1.37,0,0,0-.31,1.2A2.1,2.1,0,0,0,197.47,253.49Zm.27-1.77a.5.5,0,0,1,.38-.14h.08a1.27,1.27,0,0,1,.7.34c.39.36.53.89.3,1.14a.54.54,0,0,1-.46.14,1.35,1.35,0,0,1-1.1-1A.55.55,0,0,1,197.74,251.73Zm63.6-52.55,3.82,2a1.49,1.49,0,0,0,1.38-2.64l-3.82-2a1.49,1.49,0,0,0-1.38,2.64Zm.12-1.61a.64.64,0,0,1,.86-.27l3.82,2a.64.64,0,1,1-.59,1.13l-3.82-2A.64.64,0,0,1,261.46,197.56Zm.57,56.78a1.48,1.48,0,0,0,.69-.17l3.82-2a1.49,1.49,0,0,0-1.38-2.64l-3.82,2a1.49,1.49,0,0,0,.69,2.81Zm-.3-2.05,3.82-2a.64.64,0,0,1,.59,1.13l-3.82,2a.64.64,0,0,1-.59-1.13ZM225.35,221a4.34,4.34,0,1,0,4.34,4.34A4.35,4.35,0,0,0,225.35,221Zm0,7.83a3.49,3.49,0,1,1,3.49-3.49A3.5,3.5,0,0,1,225.35,228.85Zm0-14.9a11.41,11.41,0,1,0,11.41,11.41A11.42,11.42,0,0,0,225.35,213.94Zm0,22a10.56,10.56,0,1,1,10.56-10.56A10.57,10.57,0,0,1,225.35,235.91Zm9.14-12.82h-1a8.56,8.56,0,0,0-5.93-5.93v-1H223.1v1a8.56,8.56,0,0,0-5.93,5.93h-1v4.52h1a8.55,8.55,0,0,0,5.93,5.93v1h4.52v-1a8.56,8.56,0,0,0,5.93-5.93h1Zm-10.55-6h2.82v1.28h-2.82Zm-6.88,6.88h1.28v2.82h-1.28Zm9.7,9.7h-2.82v-1.28h2.82Zm.85-1.59v-.54H223.1v.54a7.13,7.13,0,0,1-4.44-4.44h.54V223.1h-.54a7.14,7.14,0,0,1,4.44-4.44v.54h4.52v-.54a7.13,7.13,0,0,1,4.44,4.44h-.54v4.52h.54A7.14,7.14,0,0,1,227.61,232.06Zm6-5.29h-1.28v-2.82h1.28Zm21.54.43a1.84,1.84,0,1,0-1.84-1.84A1.84,1.84,0,0,0,255.18,227.19Zm0-2.83a1,1,0,1,1-1,1A1,1,0,0,1,255.18,224.36Zm-29.83-25.65a26.65,26.65,0,0,0,0,53.29c12.2,0,32.87-9.87,33.07-10l.24-.12V208.79l-.24-.12C258.22,208.57,237.59,198.71,225.35,198.71ZM202.89,235.2l-1.15.5q-.4-.9-.73-1.84l1.16-.51C202.38,234,202.62,234.6,202.89,235.2Zm-1.2-9.85a23.61,23.61,0,0,1,21.88-23.6l-3.2,6.38c-8.16,2-13.86,8.71-13.86,17.22s5.7,15.25,13.86,17.22l3.2,6.38A23.61,23.61,0,0,1,201.69,225.35Zm.48-8-1.16-.51q.33-.94.73-1.84l1.15.5C202.62,216.11,202.38,216.72,202.17,217.35Zm55.65,14H238.11V219.4h19.71Zm-32.46,11c-10.26,0-18-7.3-18-17s7.74-17,18-17c3.86,0,9.64,5.83,11.9,10.69v12.56C235,236.49,229.24,242.32,225.35,242.32Zm-2.17.74,1.11,5.45-2.85-5.69C222,242.92,222.59,243,223.18,243.06Zm1.11-40.86-1.11,5.45c-.59.06-1.17.13-1.74.24Zm14.28,16.36c-.26-.6-1-2.13-2-4.11h.11c6.56,0,16.16.84,21.18,2.24v1.87ZM236,215.37q-.33-.46-.68-.91h.18Zm-1.35-1.75c-2.83-3.36-6.49-6.08-9.34-6.08-.44,0-.87,0-1.29.06l1.2-5.87c4.12,2.93,7.57,8,9.81,11.89ZM224,200.88a24.42,24.42,0,0,0-13.06,4.62l-.83-.94a25.65,25.65,0,0,1,14.54-5ZM210.26,206c-.52.41-1,.84-1.51,1.28l-.83-.93c.49-.45,1-.87,1.51-1.28Zm0,38.7-.82.93c-.52-.41-1-.83-1.51-1.28l.82-.93C209.24,243.87,209.74,244.3,210.26,244.7Zm.68.51A24.42,24.42,0,0,0,224,249.83l.65,1.3a25.65,25.65,0,0,1-14.54-5Zm13.12-2.1c.43,0,.86.06,1.29.06,2.87,0,6.53-2.72,9.35-6.08H235c-2.26,3.91-5.71,9-9.79,11.9Zm11.33-6.87.54-.72-.4.72Zm3.18-4.09h19.25V234c-5,1.41-14.63,2.24-21.18,2.24h-.13C237.59,234.29,238.3,232.75,238.57,232.16Zm19.25-16.35c-5.15-1.39-14.67-2.21-21.18-2.21h-.57c-2.29-4.07-6-9.55-10.47-12.69a.82.82,0,0,0-.16-.07l.26-1.27c11.36.17,29.8,8.67,32.12,9.76Zm-50.51-8.86.82.93a24.48,24.48,0,0,0-4.89,6.85l-1.15-.51A25.92,25.92,0,0,1,207.31,206.94Zm-6.58,10.71,1.17.51a24.77,24.77,0,0,0,0,14.38l-1.17.51a25.83,25.83,0,0,1,0-15.4Zm1.35,18.83,1.15-.5a24.48,24.48,0,0,0,4.89,6.86l-.82.93A25.92,25.92,0,0,1,202.09,236.48Zm23.61,14.66-.26-1.27a.82.82,0,0,0,.16-.07c4.47-3.14,8.14-8.62,10.44-12.69h.6c6.52,0,16-.82,21.18-2.21v6.48C255.49,242.47,237,251,225.7,251.14Zm180.46-44.92a19.13,19.13,0,1,0,19.13,19.13A19.16,19.16,0,0,0,406.16,206.22Zm8.47,14.86-4.48,1.86c-.07-.12-.14-.23-.23-.34l3.43-3.43A9.52,9.52,0,0,1,414.63,221.08Zm-4.19,12.74-1.86-4.48.34-.23,3.43,3.43A9.52,9.52,0,0,1,410.44,233.82Zm-3.57,1V230l.4-.08,1.86,4.49A9.43,9.43,0,0,1,406.87,234.81Zm-3.68-.45,1.86-4.49.4.08v4.86A9.43,9.43,0,0,1,403.2,234.37ZM400,232.54l3.43-3.43.34.23-1.86,4.48A9.52,9.52,0,0,1,400,232.54Zm1.91-15.66,1.86,4.49-.34.22L400,218.16A9.52,9.52,0,0,1,401.89,216.88Zm3.57-1v4.86l-.4.08-1.86-4.49A9.42,9.42,0,0,1,405.46,215.89Zm3.68.45-1.86,4.49-.4-.08v-4.86A9.43,9.43,0,0,1,409.13,216.34Zm3.22,1.83-3.43,3.43-.34-.22,1.86-4.48A9.52,9.52,0,0,1,412.35,218.16Zm3.27,6.48h-4.85c0-.14,0-.27-.08-.4l4.49-1.86A9.43,9.43,0,0,1,415.62,224.64Zm-9.46,4.54a3.83,3.83,0,1,1,3.83-3.83A3.83,3.83,0,0,1,406.16,229.18Zm-4.61-4.54H396.7a9.43,9.43,0,0,1,.45-2.26l4.49,1.86C401.6,224.37,401.58,224.51,401.56,224.64Zm-4.85,1.42h4.85c0,.14,0,.27.08.4l-4.49,1.86A9.43,9.43,0,0,1,396.7,226.06Zm14.07,0h4.85a9.43,9.43,0,0,1-.45,2.26l-4.49-1.86C410.73,226.33,410.75,226.2,410.77,226.06Zm2.39-8.31a10.4,10.4,0,0,0-1.05-.86l4-6.2a17.83,17.83,0,0,1,2.27,1.85Zm-1.77-1.31q-.43-.25-.88-.46l2.82-6.81a17.65,17.65,0,0,1,2,1.08Zm-1.67-.79a10.22,10.22,0,0,0-1.3-.39l1.31-7.26a17.51,17.51,0,0,1,2.81.85Zm-2.14-.53q-.49-.07-1-.09v-7.37a17.7,17.7,0,0,1,2.3.21Zm-1.84-.09a10.34,10.34,0,0,0-1.35.14L402.82,208a17.73,17.73,0,0,1,2.92-.3Zm-2.18.32q-.49.13-1,.3l-2.82-6.81a17.53,17.53,0,0,1,2.21-.69Zm-1.74.62a10.33,10.33,0,0,0-1.19.65l-4.2-6.06a17.7,17.7,0,0,1,2.57-1.4Zm-1.89,1.14q-.4.3-.76.64L394,212.54a17.84,17.84,0,0,1,1.78-1.48Zm-1,2.05,3.43,3.43c-.08.11-.15.22-.22.34l-4.48-1.86A9.52,9.52,0,0,1,399,219.17ZM396.79,221,390,218.19a17.65,17.65,0,0,1,1.08-2l6.19,4Q397,220.55,396.79,221Zm-.33.79a10.23,10.23,0,0,0-.39,1.3l-7.26-1.31a17.52,17.52,0,0,1,.85-2.81Zm-.53,2.14q-.07.49-.09,1h-7.37a17.71,17.71,0,0,1,.21-2.31Zm-.09,1.84a10.33,10.33,0,0,0,.14,1.35l-7.21,1.57a17.73,17.73,0,0,1-.3-2.92Zm.32,2.18q.13.49.3,1l-6.81,2.82a17.54,17.54,0,0,1-.69-2.21Zm.62,1.74a10.32,10.32,0,0,0,.65,1.19l-6.06,4.2a17.7,17.7,0,0,1-1.4-2.57Zm.91-.07,4.48-1.86c.07.12.14.23.22.34L399,231.54A9.52,9.52,0,0,1,397.7,229.63Zm1.47,3.32a10.41,10.41,0,0,0,1.05.86l-4,6.2a17.83,17.83,0,0,1-2.27-1.85Zm1.77,1.31q.43.25.88.46L399,241.54a17.66,17.66,0,0,1-2-1.08Zm1.67.79a10.24,10.24,0,0,0,1.3.39l-1.31,7.26a17.51,17.51,0,0,1-2.81-.85Zm2.14.53c.33,0,.66.07,1,.09V243a17.7,17.7,0,0,1-2.3-.21Zm1.84.09a10.35,10.35,0,0,0,1.35-.14l1.56,7.21a17.72,17.72,0,0,1-2.92.3Zm2.18-.32q.49-.13,1-.3l2.82,6.81a17.55,17.55,0,0,1-2.21.69Zm1.74-.62a10.32,10.32,0,0,0,1.19-.65l4.2,6.06a17.69,17.69,0,0,1-2.57,1.4Zm1.89-1.14q.4-.3.77-.64l5.21,5.21a17.83,17.83,0,0,1-1.78,1.48Zm1-2.05-3.43-3.43c.08-.11.15-.22.23-.34l4.48,1.86A9.52,9.52,0,0,1,413.35,231.54Zm2.19-1.84,6.81,2.82a17.65,17.65,0,0,1-1.08,2l-6.19-4Q415.33,230.15,415.54,229.7Zm.33-.79a10.24,10.24,0,0,0,.39-1.3l7.26,1.31a17.51,17.51,0,0,1-.85,2.81Zm.53-2.14q.07-.49.09-1h7.37a17.71,17.71,0,0,1-.21,2.3Zm.09-1.84a10.35,10.35,0,0,0-.14-1.35l7.21-1.57a17.72,17.72,0,0,1,.3,2.92Zm-.32-2.18q-.13-.49-.3-1l6.81-2.82a17.54,17.54,0,0,1,.69,2.21Zm-.62-1.74a10.33,10.33,0,0,0-.65-1.19l6.06-4.2a17.69,17.69,0,0,1,1.4,2.57Zm-1.14-1.89q-.3-.4-.64-.76l5.21-5.21a17.83,17.83,0,0,1,1.48,1.78Zm-21-6,5.21,5.21a10.41,10.41,0,0,0-.86,1.05l-6.2-4A17.83,17.83,0,0,1,393.36,213.15Zm-1.48,22.64,6-4.2q.3.4.64.76l-5.21,5.21A17.83,17.83,0,0,1,391.87,235.78Zm27.1,1.78-5.21-5.21a10.41,10.41,0,0,0,.86-1.05l6.2,4A17.84,17.84,0,0,1,419,237.56Zm-33.41-40.81-.12-.67-.55.41a36,36,0,0,0-11.74,14.86l-.25.59h7.17l.12-.22a30.35,30.35,0,0,1,6.25-8.11l.17-.15,0-.22C386.28,201.06,385.94,198.88,385.56,196.75Zm-6,14.33h-5.37a35.11,35.11,0,0,1,10.65-13.5c.32,1.83.6,3.69.86,5.54A31.22,31.22,0,0,0,379.56,211.08Zm.63,27.93-.12-.23H372.9l.25.59a36,36,0,0,0,11.74,14.83l.55.41.12-.68c.38-2.15.72-4.34,1-6.5l0-.22-.17-.15A29.38,29.38,0,0,1,380.19,239Zm4.66,14.09a35.11,35.11,0,0,1-10.65-13.47h5.37a30.2,30.2,0,0,0,6.15,7.91C385.45,249.39,385.16,251.25,384.84,253.1ZM430.71,215h30l-2.57-9.92h-27.4Zm.85-9.07h25.89l2.13,8.22h-28Zm29.12,29.7-30,0v9.91h27.37Zm-29.12,9.08v-8.21h28l-2.16,8.21Zm5.2-24.06h-6.24V230h6.24Zm-.85,8.5h-4.54v-7.65h4.54Zm7.83-8.5H437.5V230h6.24Zm-.85,8.5h-4.54v-7.65h4.54Zm7.83-8.5h-6.24V230h6.24Zm-.85,8.5h-4.54v-7.65h4.54Zm7.83-8.5h-6.24V230h6.24Zm-.85,8.5h-4.54v-7.65h4.54Zm7.83-8.5h-6.24V230h6.24Zm-.85,8.5h-4.54v-7.65h4.54Zm223-2a1.84,1.84,0,1,0-1.84-1.84A1.84,1.84,0,0,0,686.79,227.2Zm0-2.83a1,1,0,1,1-1,1A1,1,0,0,1,686.79,224.36Zm-76.51,35.86a1.49,1.49,0,0,0-1.68-1.27l-4.21.59a1.49,1.49,0,0,0-.69,2.66,1.47,1.47,0,0,0,.89.3h.21l4.21-.59a1.49,1.49,0,0,0,1.27-1.68Zm-1,.59a.63.63,0,0,1-.42.25l-4.21.59a.65.65,0,0,1-.47-.12.64.64,0,0,1,.29-1.14l4.21-.59h.09a.64.64,0,0,1,.51,1Zm-6.19-71.32a1.49,1.49,0,0,0,1.27,1.68l4.21.59h.21a1.49,1.49,0,0,0,1.19-2.38,1.48,1.48,0,0,0-1-.58l-4.21-.59a1.49,1.49,0,0,0-1.68,1.27Zm1.09-.3a.64.64,0,0,1,.47-.12l4.21.59a.64.64,0,0,1-.18,1.26l-4.21-.59a.64.64,0,0,1-.3-1.14ZM491.77,256.65h22.52v-8.18H491.77Zm2.38-1.82,10.47,1H493.21Zm.26-.83v-2.89l19-1.75v6.4Zm-.26-3.72-.95-1h11.42Zm-.59.62v3.32l-.94,1v-5.25Zm-1.79-48.67h22.52v-8.18H491.77Zm2.38-1.82,10.47,1H493.21Zm.26-.83V196.7l19-1.75v6.4Zm-.26-3.72-.95-1h11.42Zm-.59.62v3.32l-.94,1v-5.25Zm32.29,47.67h22.52V236H525.86Zm2.38-1.82,10.47,1H527.29Zm.26-.83v-2.89l19-1.75v6.4Zm-.26-3.72-.95-1h11.42Zm-.59.62v3.32l-.94,1v-5.25Zm-1.79-23.67h22.52v-8.18H525.86Zm2.38-1.82,10.47,1H527.29Zm.26-.83V209.2l19-1.75v6.4Zm-.26-3.72-.95-1h11.42Zm-.59.62v3.32l-.94,1V208Zm27.65-39.3v-4.78a1.13,1.13,0,0,1,.32-.79l11-11.38a.3.3,0,0,1,.51.21v4.78a1.13,1.13,0,0,1-.32.79l-11,11.38A.3.3,0,0,1,555.31,169.69Zm-9.69,10v-4.81a1.13,1.13,0,0,1,.32-.79l4.63-4.78a.28.28,0,0,1,.49.2v4.81a1.13,1.13,0,0,1-.32.79l-4.63,4.78A.28.28,0,0,1,545.62,179.73Zm22-120.06a4,4,0,1,0,4,4A4,4,0,0,0,567.58,59.67Zm0,7.09a3.12,3.12,0,1,1,3.12-3.12A3.12,3.12,0,0,1,567.58,66.76ZM717,58.55H569.33v0a5.32,5.32,0,0,0-1.75-.32,5.39,5.39,0,1,0,0,10.77,5.32,5.32,0,0,0,1.75-.32v0H717c14.65,0,36.46-1.36,36.46-5.09S731.68,58.55,717,58.55ZM563,63.64a4.54,4.54,0,1,1,4.54,4.54A4.54,4.54,0,0,1,563,63.64Zm154,4.24H570.86a5.32,5.32,0,0,0,0-8.48H717c22.06,0,35.61,2.47,35.61,4.24S739.08,67.88,717,67.88Zm240-1.69a2.55,2.55,0,1,0-2.55-2.55A2.55,2.55,0,0,0,957,66.19Zm0-4.25a1.7,1.7,0,1,1-1.7,1.7A1.7,1.7,0,0,1,957,61.94ZM941.49,45.21a2.2,2.2,0,1,0-2.2-2.2A2.2,2.2,0,0,0,941.49,45.21Zm0-3.54A1.35,1.35,0,1,1,940.15,43,1.35,1.35,0,0,1,941.49,41.67ZM566.84,292.19a1.13,1.13,0,0,1,.32.79v4.78a.3.3,0,0,1-.51.21l-11-11.38a1.13,1.13,0,0,1-.32-.79V281a.3.3,0,0,1,.51-.21Zm-16.1-16.63a1.13,1.13,0,0,1,.32.79v4.81a.28.28,0,0,1-.49.2l-4.63-4.78a1.13,1.13,0,0,1-.32-.79V271a.28.28,0,0,1,.49-.2ZM567.58,383.1a4,4,0,1,0,4,4A4,4,0,0,0,567.58,383.1Zm0,7.09a3.12,3.12,0,1,1,3.12-3.12A3.12,3.12,0,0,1,567.58,390.19ZM717,382H569.33v0a5.32,5.32,0,0,0-1.75-.32,5.39,5.39,0,1,0,0,10.77,5.32,5.32,0,0,0,1.75-.32v0H717c14.65,0,36.46-1.36,36.46-5.09S731.68,382,717,382Zm-154,5.09a4.54,4.54,0,1,1,4.54,4.54A4.54,4.54,0,0,1,563,387.07Zm154,4.24H570.86a5.32,5.32,0,0,0,0-8.48H717c22.06,0,35.61,2.47,35.61,4.24S739.08,391.31,717,391.31Zm240-6.79a2.55,2.55,0,1,0,2.55,2.55A2.55,2.55,0,0,0,957,384.52Zm0,4.25a1.7,1.7,0,1,1,1.7-1.7A1.7,1.7,0,0,1,957,388.77ZM941.49,405.5a2.2,2.2,0,1,0,2.2,2.2A2.2,2.2,0,0,0,941.49,405.5Zm0,3.54a1.35,1.35,0,1,1,1.35-1.35A1.35,1.35,0,0,1,941.49,409Zm10.89-33.19c-14.92-3.64-34.46-6.12-55-7l-65.32-4.58-.42.3c-2.81,2-6.78,3.05-11.78,3.05H742.34l-134.52-98.7c11.89-2.1,24.15-3.69,36.51-4.73,13.64-1.15,25.91-2.07,37.7-2H684l0-.07A36.85,36.85,0,0,0,682,188.5v0c-11.8.1-24.06-.84-37.7-2-12.36-1-24.62-2.63-36.51-4.73L742.34,83.07h77.52c5,0,9,1,11.78,3.05l.42.3,65.28-4.57c20.58-.87,40.13-3.36,55-7C962.68,72.35,975,68.26,975,63.06c0-2.47-2.15-6.14-20.59-9.68L946.59,37l-90.75,1.52h-.67l-3,3.71-20.15-1.41-.42.3c-2.8,2-6.77,3-11.78,3H575.6l-8.21-2.74h-57.6c-10.87,0-33.35,5.42-33.5,22.16a16.57,16.57,0,0,0,5.11,12.14c6.83,6.9,19.5,10,28.39,10h57.6l8.21-2.74h52.88l-88.26,91.08c-30.56-2.73-63-4.15-96.39-4.23a225.29,225.29,0,1,0,0,110.85c33.42-.08,65.84-1.5,96.39-4.23l88.26,91.08H575.6l-8.21-2.74h-57.6c-8.88,0-21.55,3.14-28.39,10a16.57,16.57,0,0,0-5.11,12.14c.15,16.74,22.64,22.16,33.5,22.16h57.6l8.21-2.74H819.87c5,0,9,1,11.78,3l.42.3,20.15-1.41,3,3.71,91.41,1.53,7.78-16.34c18.43-3.53,20.59-7.21,20.59-9.68C975,382.44,962.68,378.36,952.39,375.85Zm-212.12-6.22H691.41l0-.05L582.64,263.5c4.21-.11,8.38-.2,12.18-.16l6.58,4.38Zm-95.48,0L545.16,266.81a70.33,70.33,0,0,1,12-2.11L662.09,369.63ZM542.07,274.39l-1.14-1.18,0,0c-7.24-7.06-13.17-12.51-18-15.87,5.91.22,15.91,4.79,20.46,8.77l.63.65v9.55l-1.43-1.47h0Zm-64-6.09q8.82,0,17.57-.16v8.56q-19.07.88-38.77,1.15v-9.78C464,268.21,471,268.3,478.12,268.3Zm18.43-.18c12.3-.23,24.45-.68,36.3-1.37l1.85,1.72v5.7q-18.66,1.56-38.15,2.48Zm39,1.15q2.21,2.09,4.61,4.44l-4.61.39Zm8.38-3.74c-4.62-4-14.19-8.48-20.39-9a103.91,103.91,0,0,1,40.67-8.67A148,148,0,0,1,586.14,250a3.64,3.64,0,0,0-2.28,1.41c-1.32,2.42,1.2,5.55,7.91,9.85l1.76,1.18c-5,0-10.55.15-15.93.31l-5.66.16c-12.43.33-21.65,1.39-27.45,3.16Zm78,62.73,5.81-.34.18,0,1.82-2.75,6.12-.35,3,2.5,7.51-.43,21.92,21.37-5.75.33h-.24l-1.72,2.8-7.56.44-2.7-2.53-7,.41Zm17.26-1.85-3-2.5-6.88.4-1.84,2.78-6.3.36L594.63,301l5.36-.31,2.45,2.52,8-.46,1.38-2.74,6.64-.38L645.58,326Zm-27.91-27.25-1.38,2.74-7.1.41-2.45-2.52-6.5.37-21.27-21.27,5.61-.32,2.12-2.74,5.16-.3,3.31,2.43,7.08-.41,21.79,21.24ZM589,277.09l-3.31-2.43-5.85.34-2.12,2.74-6,.34-13.49-13.49q6-.57,13.71-.78l5.67-.16,3.82-.11L595,276.75Zm55.11,73.37,5.92-.34,2.7,2.53,8.37-.48,1.71-2.79,6.33-.36,21.14,20.61H663.17l.06-.06Zm-40.05-83.73-2.07.38-9.77-6.51a43.66,43.66,0,0,1-4.75-3.44c8.74-1.89,18.08-3.48,27.83-4.75v12.41Q609.64,265.7,604.07,266.73Zm40-5.35c-9.41.79-18.76,1.91-27.93,3.32V252.3c12.41-1.59,25.46-2.67,38.75-3.17,3.9-.15,7.72-.29,11.53-.39v11C659.32,260.13,651.94,260.72,644.1,261.38Zm37.51-12.69v2.68L670,259.6l-2.66.12v-11C672,248.61,676.7,248.57,681.61,248.69Zm34.45-23.33a34.07,34.07,0,0,1-25.84,33,20.76,20.76,0,0,1-4.94.25c-2.21-.19-3.64-.87-3.92-1.85a2.51,2.51,0,0,1,.67-2.07c.77-.67,1.49-1.4,2.19-2.14a22.35,22.35,0,0,0,2.56.15c13.52,0,24.52-12.27,24.52-27.35S700.32,198,686.79,198a22.44,22.44,0,0,0-2.57.15,29.78,29.78,0,0,0-2.14-2.1,2.54,2.54,0,0,1-.72-2.12c.28-1,1.71-1.66,3.92-1.85a20.76,20.76,0,0,1,4.94.25A34.07,34.07,0,0,1,716.06,225.35Zm-31.14-26.41c.62-.05,1.25-.09,1.87-.09A21.29,21.29,0,0,1,689,199l-.79,4.46A34.19,34.19,0,0,0,684.92,198.94Zm4.94.14a21.33,21.33,0,0,1,3.72.89L690.65,208a38.56,38.56,0,0,0-1.75-3.49Zm4.52,1.18a22.29,22.29,0,0,1,3.45,1.66l-5.71,9.89q-.45-1.36-1-2.66Zm4.17,2.11a24,24,0,0,1,3.59,2.84l-8.29,9.88c-.31-.21-.63-.42-1-.6-.13-.52-.3-1-.45-1.54Zm4.2,3.43a25.75,25.75,0,0,1,2.36,2.79l-9.49,8a12.47,12.47,0,0,0-1.08-1Zm2.85,3.49a27.12,27.12,0,0,1,2,3.54l-10.27,5.93a12.47,12.47,0,0,0-1.17-1.58Zm2.4,4.31a28.17,28.17,0,0,1,1.18,3.15l-10.82,3.94a12.46,12.46,0,0,0-.56-1.2Zm1.42,4a29,29,0,0,1,.69,3.24l-11.11,2a12.44,12.44,0,0,0-.35-1.28Zm.81,11.48-11.09-2a12.5,12.5,0,0,0,.11-1.32h1v.71h.85v-.71H703v.71h.85v-.71h1.92v.71h.85v-.71h1.92v.71h.85v-.71h1A29.71,29.71,0,0,1,710.23,229.05Zm-.82-4.12v-.71h-.85v.71h-1.92v-.71h-.85v.71h-1.92v-.71H703v.71H701.1v-.71h-.85v.71h-1a12.51,12.51,0,0,0-.11-1.32l11.09-2a29.71,29.71,0,0,1,.23,3.28Zm-10.42,3,11.11,2a29,29,0,0,1-.69,3.24l-10.77-3.92A12.45,12.45,0,0,0,699,227.94Zm-.64,2.08L709.18,234a28.17,28.17,0,0,1-1.18,3.15l-10.2-5.89A12.45,12.45,0,0,0,698.36,230Zm-1,1.94,10.27,5.93a27.12,27.12,0,0,1-2,3.54l-9.4-7.88A12.47,12.47,0,0,0,697.37,232Zm-1.75,2.21,9.49,8a25.74,25.74,0,0,1-2.36,2.79l-8.21-9.79A12.49,12.49,0,0,0,695.63,234.16Zm-1.77,1.47,8.29,9.88a24,24,0,0,1-3.59,2.84l-6.1-10.56c.15-.52.32-1,.45-1.55C693.24,236,693.55,235.84,693.86,235.63Zm-1.73,3.28,5.7,9.88a22.28,22.28,0,0,1-3.45,1.66l-3.23-8.86Q691.69,240.28,692.13,238.91Zm-1.47,3.8,2.92,8a21.33,21.33,0,0,1-3.72.89l-1-5.42A37.43,37.43,0,0,0,690.66,242.71Zm-2.42,4.6.78,4.42a21.29,21.29,0,0,1-2.22.12c-.62,0-1.24,0-1.86-.09A33.81,33.81,0,0,0,688.23,247.31Zm-6.18-56c.67,0,1.33,0,2,.06-1.94.36-3.17,1.16-3.49,2.3a3.27,3.27,0,0,0,.93,2.94,35.85,35.85,0,0,1,10.65,18.22l0,.18.16.09a11.63,11.63,0,0,1,0,20.44l-.16.09,0,.18a35.83,35.83,0,0,1-10.7,18.27,3.23,3.23,0,0,0-.88,2.89c.33,1.14,1.56,1.94,3.49,2.3-.66,0-1.32.06-2,.06h-.7c-3.24,0-6.51.05-9.83.17l10.76-7.6.18-.13v-4H682c-9.38-.25-18,.09-27.16.43-24.34.93-47.91,3.75-68.18,8.18-2-1.9-2.72-3.44-2.1-4.59.46-.83,2.53-1.28,3.85-1.33l2.65-.1-2.55-.73c-2.69-.77-15.8-2.65-24.36-2.65a105.16,105.16,0,0,0-42.85,9.54l-.71.32.65.42A88,88,0,0,1,532,265.95c-17.48,1-35.59,1.5-53.85,1.5-10.48,0-21-.17-31.26-.5q1.09-5.82,1.88-11.71l9.62.57,4.3-16.39c24.51-.3,45.57-4.61,51.43-10.52h16.42v5.24h4.25v-5.24h38.91v5.24h4.25v-5.24h39.25v5.24h4.25v-5.24h40.87v5.24h4.25v-5.24h20.25a3.54,3.54,0,1,0,0-7.08H666.54v-5.24h-4.25v5.24H621.42v-5.24h-4.25v5.24H577.92v-5.24h-4.25v5.24H534.76v-5.24h-4.25v5.24H514.09c-5.85-5.9-26.92-10.21-51.43-10.52l-4.3-16.39-9.62.57q-.78-5.89-1.88-11.71c10.28-.33,20.78-.5,31.26-.5,18.31,0,36.46.51,54,1.51a81.07,81.07,0,0,1-10.78,8.61l-.65.42.71.32a105.16,105.16,0,0,0,42.85,9.54c8.56,0,21.67-1.88,24.36-2.65l2.55-.73-2.65-.1c-1.33-.05-3.4-.5-3.85-1.33-.63-1.15.08-2.68,2.1-4.59,20.27,4.42,43.83,7.25,68.18,8.18,7,.26,13.61.52,20.53.52,2.18,0,4.39,0,6.64-.08h.41v-4l-10.93-7.72C675.09,191.3,678.59,191.37,682.05,191.34ZM385.28,372.43A216.65,216.65,0,0,0,438.5,267.7a1.83,1.83,0,0,0,.66-3.51c.56-3.12,1.06-6.29,1.49-9.44l5.25.31A222,222,0,0,1,389,376.13ZM228.22,441.76a2.9,2.9,0,0,0-2.44-2.42V417.11a191.77,191.77,0,0,0,72.57-14.43l9.45,22.8A216.15,216.15,0,0,1,228.22,441.76Zm-5.72,0a216.15,216.15,0,0,1-79.58-16.27l9.45-22.82a190.7,190.7,0,0,0,72.56,14.44v22.23A2.9,2.9,0,0,0,222.49,441.76ZM66.2,372a216.19,216.19,0,0,1-40.66-63.44l22.81-9.45a192.43,192.43,0,0,0,41.17,61.46L78.1,372Zm0-293.32H78.1L89.52,90.12a192.43,192.43,0,0,0-41.17,61.45l-22.81-9.45A216.19,216.19,0,0,1,66.2,78.69ZM222.49,9a2.9,2.9,0,0,0,2.43,2.42V33.6A190.7,190.7,0,0,0,152.37,48l-9.45-22.82A216.15,216.15,0,0,1,222.49,9Zm5.72,0a216.15,216.15,0,0,1,79.58,16.27L298.35,48a191.77,191.77,0,0,0-72.57-14.43V11.37A2.9,2.9,0,0,0,228.22,9ZM389,74.58A222,222,0,0,1,445.9,195.64l-5.25.31c-.43-3.15-.93-6.32-1.49-9.44a1.83,1.83,0,0,0-.66-3.51A216.66,216.66,0,0,0,385.28,78.28ZM686.79,222.66a2.69,2.69,0,0,1,0,5.38H514.3v-5.38Zm-155.44-1.42v-3.83h2.55v3.83Zm43.16,0v-3.83h2.55v3.83Zm43.5,0v-3.83h2.55v3.83Zm45.13,0v-3.83h2.55v3.83Zm2.55,8.21v3.83h-2.55v-3.83Zm-45.12,0v3.83H618v-3.83Zm-43.5,0v3.83h-2.55v-3.83Zm-43.16,0v3.83h-2.55v-3.83ZM513.45,228H466.74v-5.38h46.71Zm-107.29,22.4a25.51,25.51,0,0,1-2.77-.15,25.09,25.09,0,0,1,0-49.87,25.43,25.43,0,0,1,2.75-.15,25.06,25.06,0,0,1,24.31,18.85l.08.32h35.34v11.79H430.56l-.08.32A25.06,25.06,0,0,1,406.16,250.44Zm20.9-9.75v7.08h29.56l-1.46,5.54-43.8-2.58A25.9,25.9,0,0,0,427.07,240.69Zm0-30.68A25.91,25.91,0,0,0,411.37,200l43.8-2.58,1.45,5.54H427.07Zm37.51,8.58-.53-2c20,.25,37.45,2.26,45.87,5.23H466.74v-3.22Zm2.17,13.49v-3.19h43.17c-8.42,3-25.88,5-45.86,5.23l.53-2ZM463.82,235c21.89-.26,40.84-2.64,48.39-6.08h.62c-6.49,5.43-26.59,9.35-50,9.66Zm48.39-13.16c-7.54-3.44-26.49-5.82-48.39-6.08l-.94-3.58c23.36.31,43.47,4.23,50,9.66Zm-48.52-3.22H431.21a25.83,25.83,0,0,0-3.29-7.36v-7.46h29.81l-1.91-7.28-49.68,2.92h0a26.38,26.38,0,0,0-2.81.15,25.94,25.94,0,0,0,0,51.56,26.48,26.48,0,0,0,2.84.16h0l49.68,2.92,1.92-7.28H427.92v-7.45a25.85,25.85,0,0,0,3.3-7.39H463.7l-6,22.82-54.32-3.2h0a26.51,26.51,0,0,1,0-52.72l54.32-3.19Zm-25.29,48.27a1,1,0,1,1,1-1A1,1,0,0,1,438.41,266.86Zm-.08-2.83a1.84,1.84,0,0,0-.66,3.52,214.85,214.85,0,0,1-12.15,40.25l-22.8-9.44a190.41,190.41,0,0,0,12.39-45.1l24.7,1.45C439.38,257.82,438.89,260.95,438.33,264Zm-.66-80.88a1.84,1.84,0,0,0,.66,3.52c.56,3.08,1,6.22,1.47,9.33l-24.7,1.45a190.41,190.41,0,0,0-12.39-45.1l22.8-9.44A214.86,214.86,0,0,1,437.67,183.15Zm.74,2.67a1,1,0,1,1,1-1A1,1,0,0,1,438.41,185.83ZM414.25,197.5l-10.92.64a27.26,27.26,0,0,0-13.19,5,164.74,164.74,0,0,0-11-41l22.79-9.44A189.56,189.56,0,0,1,414.25,197.5Zm-35.35,29.91H365.51v9.47a11.65,11.65,0,0,1,0-23.08v9.48h13.39c-.05.68-.08,1.37-.08,2.06S378.84,226.73,378.89,227.41ZM325.57,325,309.1,308.49a118.47,118.47,0,0,0,25.17-37.57l21.51,8.91A141.15,141.15,0,0,1,325.57,325Zm-100.22-6.5c-2,0-3.92-.07-5.85-.19V314h11.71v4.24C229.27,318.4,227.32,318.47,225.35,318.47Zm0-186.24c2,0,3.92.07,5.85.19v4.24H219.5v-4.24C221.44,132.3,223.39,132.24,225.35,132.24Zm70.44,93.12a70.44,70.44,0,1,1-70.44-70.44A70.52,70.52,0,0,1,295.8,225.35Zm-20.36-50.68a71.53,71.53,0,0,0-22.4-15l8.35-20.17a93.44,93.44,0,0,1,29.48,19.75Zm-23.2-15.33a70.88,70.88,0,0,0-26.46-5.27V137.51h6.28v-5a92.42,92.42,0,0,1,28.54,6.69Zm-27.31-21.83v16.56a70.88,70.88,0,0,0-26.46,5.27l-8.36-20.17a92.42,92.42,0,0,1,28.54-6.69v5Zm-27.25,22.14a71.53,71.53,0,0,0-22.4,15l-15.43-15.43a93.44,93.44,0,0,1,29.48-19.75Zm-23,15.62a71.53,71.53,0,0,0-15,22.41l-20.16-8.35a93.44,93.44,0,0,1,19.75-29.48Zm-15.33,23.2a70.87,70.87,0,0,0-5.27,26.46H137.52v-6.28h-5a92.42,92.42,0,0,1,6.69-28.54Zm-22.68,21v11.71h-4.24c-.12-1.94-.19-3.89-.19-5.85s.07-3.92.19-5.85Zm.85,12.56v-6.28h16.56a70.87,70.87,0,0,0,5.27,26.46l-20.17,8.36a92.42,92.42,0,0,1-6.69-28.54Zm22.14,21a71.53,71.53,0,0,0,15,22.41l-15.43,15.43a93.44,93.44,0,0,1-19.75-29.48Zm15.62,23a71.53,71.53,0,0,0,22.4,15l-8.35,20.17a93.44,93.44,0,0,1-29.48-19.75Zm23.2,15.33a70.88,70.88,0,0,0,26.46,5.27v16.56h-6.28v5a92.42,92.42,0,0,1-28.54-6.69Zm27.31,21.83V296.63a70.88,70.88,0,0,0,26.46-5.27l8.36,20.17a92.42,92.42,0,0,1-28.54,6.69v-5ZM253,291.05a71.53,71.53,0,0,0,22.4-15l15.43,15.43a93.44,93.44,0,0,1-29.48,19.75Zm23-15.62a71.53,71.53,0,0,0,15-22.41l20.16,8.35a93.44,93.44,0,0,1-19.75,29.48Zm15.33-23.2a70.87,70.87,0,0,0,5.27-26.46h21.83a92.6,92.6,0,0,1-6.93,34.81Zm5.27-27.31a70.87,70.87,0,0,0-5.27-26.46l20.17-8.36a92.6,92.6,0,0,1,6.93,34.81Zm-5.58-27.25a71.53,71.53,0,0,0-15-22.41l15.43-15.43a93.44,93.44,0,0,1,19.75,29.48Zm.41-39a94.3,94.3,0,0,0-29.76-19.94l8.89-21.47a117.62,117.62,0,0,1,37.29,25Zm-30.55-20.26a93.44,93.44,0,0,0-35.14-7V108.15a116.56,116.56,0,0,1,44,8.76Zm-36-7a93.44,93.44,0,0,0-35.14,7l-8.89-21.47a116.56,116.56,0,0,1,44-8.76ZM189,138.7a94.29,94.29,0,0,0-29.76,19.94l-16.43-16.43a117.62,117.62,0,0,1,37.29-25Zm-30.36,20.54A94.29,94.29,0,0,0,138.7,189l-21.47-8.89a117.62,117.62,0,0,1,25-37.29Zm-20.26,30.55a93.44,93.44,0,0,0-7,35.14H108.15a116.56,116.56,0,0,1,8.76-44Zm-7,36a93.44,93.44,0,0,0,7,35.14l-21.47,8.89a116.56,116.56,0,0,1-8.76-44Zm7.31,35.93a94.29,94.29,0,0,0,19.94,29.76l-16.43,16.43a117.62,117.62,0,0,1-25-37.29Zm20.54,30.36A94.29,94.29,0,0,0,189,312l-8.89,21.47a117.62,117.62,0,0,1-37.29-25Zm30.55,20.26a93.44,93.44,0,0,0,35.14,7v23.25a116.56,116.56,0,0,1-44-8.76Zm36,7a93.44,93.44,0,0,0,35.14-7l8.89,21.47a116.56,116.56,0,0,1-44,8.76ZM261.71,312a94.3,94.3,0,0,0,29.76-19.94l16.43,16.43a117.62,117.62,0,0,1-37.29,25Zm30.36-20.54A94.29,94.29,0,0,0,312,261.71l21.47,8.89a117.62,117.62,0,0,1-25,37.29Zm20.26-30.55a93.44,93.44,0,0,0,7-35.14h23.24a116.56,116.56,0,0,1-8.76,44Zm7-36a93.44,93.44,0,0,0-7-35.14l21.47-8.89a116.56,116.56,0,0,1,8.76,44ZM312,189a94.29,94.29,0,0,0-19.94-29.76l16.43-16.43a117.62,117.62,0,0,1,25,37.29Zm-3.51-47.39a118.47,118.47,0,0,0-37.57-25.17l8.91-21.51a141.14,141.14,0,0,1,41.38,26.6c1.28,1.18,2.52,2.39,3.75,3.61Zm-38.36-25.49a117.41,117.41,0,0,0-44.36-8.83V84.05A141.17,141.17,0,0,1,279,94.62Zm-45.21-8.83a117.4,117.4,0,0,0-44.36,8.83l-8.89-21.47a140.52,140.52,0,0,1,53.25-10.6Zm-45.15,9.15a118.47,118.47,0,0,0-37.57,25.17l-16.43-16.43A141.8,141.8,0,0,1,170.89,95Zm-38.17,25.77a118.47,118.47,0,0,0-25.17,37.57l-2.52-1,.45-1.24a3.47,3.47,0,0,0-.1-2.74,3.42,3.42,0,0,0-2-1.83l-9.64-3.47a3.42,3.42,0,0,0-2.73.11,3.47,3.47,0,0,0-1.83,2l-.17.47L95,170.89a141.8,141.8,0,0,1,30.21-45.1Zm-32.44,36.16a1,1,0,0,0-.6-.49l-6.3-2.27a1,1,0,0,0-.75,0,1,1,0,0,0-.48.61l-2.78,7.72a1.2,1.2,0,0,0-.06.67q.07.32.22.37a.7.7,0,0,1,.45.43,1.06,1.06,0,0,1,0,.73l-1.17,3.24a1,1,0,0,1-.49.62,1,1,0,0,1-.77,0l-1.06-.38a2.93,2.93,0,0,1-1.73-1.52,2.86,2.86,0,0,1-.09-2.28l4.58-12.7.51.21L94,186a2.28,2.28,0,0,0,.09,1.84,2.41,2.41,0,0,0,1.41,1.24l1.06.38a.35.35,0,0,0,.55-.26L98.31,186a.56.56,0,0,0,0-.27.34.34,0,0,0-.13-.18,1.73,1.73,0,0,1-.62-.82,1.68,1.68,0,0,1,.12-.93L100.5,176a1.58,1.58,0,0,1,.78-.95,1.49,1.49,0,0,1,1.19,0l2.87,1,4.09,1.7a1.34,1.34,0,0,1,.24.32,1.57,1.57,0,0,1,0,1.22l-2.78,7.72a1.76,1.76,0,0,1-.42.71,2.07,2.07,0,0,1-.95.37.4.4,0,0,0-.22.09.54.54,0,0,0-.12.21L104,191.68a.57.57,0,0,0,0,.35.48.48,0,0,0,.28.19l.88.32a2.4,2.4,0,0,0,1.88-.05,2.29,2.29,0,0,0,1.24-1.36l4.33-12,.51.21-4.32,12a2.85,2.85,0,0,1-1.53,1.7,2.93,2.93,0,0,1-2.3.07l-.88-.32a1,1,0,0,1-.6-.49,1,1,0,0,1,0-.79l1.17-3.24a1,1,0,0,1,.82-.68h.07a1.1,1.1,0,0,0,.52-.22,1.14,1.14,0,0,0,.29-.47l2.78-7.72A1,1,0,0,0,109.17,178.38Zm3.74-.06.43-1.19a2.31,2.31,0,0,0-.08-1.85,2.4,2.4,0,0,0-1.41-1.24l-9.63-3.47a2.41,2.41,0,0,0-1.88.06A2.3,2.3,0,0,0,99.09,172l-.19.52-.51-.21.18-.5a3,3,0,0,1,3.84-1.81l9.63,3.47a3,3,0,0,1,1.81,3.84l-.44,1.21ZM97.6,172.89,93,185.62a3.48,3.48,0,0,0,2.14,4.54l1.06.38a1.5,1.5,0,0,0,1.19,0,1.58,1.58,0,0,0,.78-1l1.17-3.24a1.81,1.81,0,0,0,.14-.9,1.12,1.12,0,0,0-.44-.64,1.14,1.14,0,0,1-.3-.34.47.47,0,0,1,0-.32l2.78-7.72q.08-.23.18-.27a.51.51,0,0,1,.33,0l6.3,2.27a.53.53,0,0,1,.29.19.42.42,0,0,1,0,.32l-2.78,7.72a.54.54,0,0,1-.44.35h0a1.82,1.82,0,0,0-.81.34,1.63,1.63,0,0,0-.44.71L103,191.31a1.58,1.58,0,0,0,0,1.23,1.5,1.5,0,0,0,.91.77l.88.32a3.48,3.48,0,0,0,4.54-2.13l4.31-12,2.48,1a117.4,117.4,0,0,0-8.83,44.36H99l0-1.29a1.35,1.35,0,0,0-.36-1,1.33,1.33,0,0,0-1-.31l-2.5.05a1.18,1.18,0,0,0-1.3,1.36v1.18H84.05a140.52,140.52,0,0,1,10.6-53.26Zm.9,58.38a.9.9,0,0,1-.17.65,1,1,0,0,1-.67.2l-2.34.05a1,1,0,0,1-.67-.17.88.88,0,0,1-.2-.64l-.07-5.59h.55l.07,5.48a.39.39,0,0,0,.08.27.33.33,0,0,0,.25.08l2.27,0a.32.32,0,0,0,.25-.09.38.38,0,0,0,.07-.27l-.06-5.41h.57Zm-.65-6.35v-1.12a.35.35,0,0,0-.07-.25.38.38,0,0,0-.26-.06l-2.27,0a.38.38,0,0,0-.25.07.34.34,0,0,0-.07.25v1.06h-.55v-1.12a.88.88,0,0,1,.18-.65,1,1,0,0,1,.66-.2l2.34-.05a1,1,0,0,1,.67.17.91.91,0,0,1,.2.64v1.21Zm-4,.85.07,5.67a1.18,1.18,0,0,0,1.36,1.3l2.5-.05A1.18,1.18,0,0,0,99,231.34L99,225.78h8.32a117.4,117.4,0,0,0,8.83,44.36l-2.57,1.06-.06-.13a3.48,3.48,0,0,0-2-1.85,3.42,3.42,0,0,0-2.73.17l-9.22,4.46a3.48,3.48,0,0,0-1.92,4L94.65,279a140.52,140.52,0,0,1-10.6-53.26Zm5.06,52.42,6.45,13.34a2.29,2.29,0,0,0,1.38,1.22,2.41,2.41,0,0,0,1.87-.14l9.22-4.46a2.4,2.4,0,0,0,1.28-1.38,2.3,2.3,0,0,0-.11-1.84l-6.07-12.55.51-.21,6.06,12.52a2.85,2.85,0,0,1,.15,2.28,2.93,2.93,0,0,1-1.56,1.7l-9.22,4.46a2.93,2.93,0,0,1-2.3.17,2.85,2.85,0,0,1-1.7-1.53l-6.47-13.37Zm12.74-2.54L115.2,283a1.59,1.59,0,0,1,.13,1.22,1.48,1.48,0,0,1-.82.87l-6.23,3a1.49,1.49,0,0,1-1.18.1,1.57,1.57,0,0,1-.88-.86L102.65,280a1.55,1.55,0,0,1-.13-1.2,1.49,1.49,0,0,1,.83-.86l6.23-3,0,0a1.41,1.41,0,0,1,1.16-.09A1.58,1.58,0,0,1,111.63,275.66Zm.91-4,0-.08a2.31,2.31,0,0,0-1.38-1.24,2.4,2.4,0,0,0-1.88.14L100,274.91a2.41,2.41,0,0,0-1.27,1.38,2.27,2.27,0,0,0-.11,1.09l-.52.22a2.85,2.85,0,0,1,.1-1.51,2.89,2.89,0,0,1,1.55-1.71l9.22-4.46a3,3,0,0,1,4,1.4l.05.1Zm-14.67,7h0l6.48,13.4a3.48,3.48,0,0,0,4.74,1.64l9.22-4.46a3.48,3.48,0,0,0,1.66-4.73l-6-12.5,2.52-1a118.47,118.47,0,0,0,25.17,37.57l-16.43,16.43A141.8,141.8,0,0,1,95,279.82Zm44.34,30.48a118.47,118.47,0,0,0,37.57,25.17l-8.9,21.47a141.8,141.8,0,0,1-45.1-30.21Zm38.35,25.49a117.41,117.41,0,0,0,44.36,8.83v23.25a140.52,140.52,0,0,1-53.25-10.6Zm45.21,8.83a117.41,117.41,0,0,0,44.36-8.83L279,356.09a141.17,141.17,0,0,1-53.27,10.57Zm45.15-9.15a118.47,118.47,0,0,0,37.57-25.17L325,325.57c-1.23,1.22-2.48,2.43-3.76,3.61a141.15,141.15,0,0,1-41.38,26.59Zm63.66-64.12a117.4,117.4,0,0,0,8.83-44.36h11.2a12.45,12.45,0,0,0,11.5,12v0h0a140.69,140.69,0,0,1-10,41.21Zm20-45.21h-11.2a117.4,117.4,0,0,0-8.83-44.36l21.52-8.91a140.7,140.7,0,0,1,10,41.25A12.44,12.44,0,0,0,354.61,224.93Zm-20.35-45.15a118.47,118.47,0,0,0-25.17-37.57l16.48-16.48a141.14,141.14,0,0,1,30.2,45.13Zm-8.09-54.64,16.39-16.39A165.32,165.32,0,0,1,378,161.65l-21.47,8.89A142,142,0,0,0,326.17,125.14Zm-.6-.6c-1.24-1.23-2.49-2.44-3.78-3.63a142,142,0,0,0-41.63-26.76L289,72.75A166.53,166.53,0,0,1,342,108.15Zm-46.2-30.71A142,142,0,0,0,225.78,83.2V60a164.49,164.49,0,0,1,62.46,12.46ZM224.93,83.2a141.37,141.37,0,0,0-53.58,10.66l-8.89-21.47A164.48,164.48,0,0,1,224.93,60Zm-54.37,11a142.65,142.65,0,0,0-45.38,30.4l-16.43-16.43a166,166,0,0,1,52.91-35.44Zm-46,31a142.65,142.65,0,0,0-30.4,45.38l-21.47-8.89a166,166,0,0,1,35.44-52.91ZM93.86,171.35A141.37,141.37,0,0,0,83.2,224.93H60a164.48,164.48,0,0,1,12.43-62.48ZM83.2,225.78a141.37,141.37,0,0,0,10.66,53.58l-21.47,8.89A164.48,164.48,0,0,1,60,225.78Zm11,54.37a142.65,142.65,0,0,0,30.4,45.38L108.16,342A166,166,0,0,1,72.71,289Zm31,46a142.65,142.65,0,0,0,45.38,30.4L161.67,378a166,166,0,0,1-52.91-35.44Zm46.16,30.72a141.37,141.37,0,0,0,53.58,10.66v23.25a164.48,164.48,0,0,1-62.47-12.43Zm54.43,10.66a142,142,0,0,0,53.59-10.63l8.87,21.42a164.52,164.52,0,0,1-62.46,12.46Zm54.38-10.95a142,142,0,0,0,41.63-26.75c1.29-1.19,2.54-2.4,3.78-3.63L342,342.56A166.49,166.49,0,0,1,289,378Zm46-31a142,142,0,0,0,30.39-45.41L378,289.05A165.31,165.31,0,0,1,342.56,342Zm30.72-46.19A141.55,141.55,0,0,0,367,237.84H381.8a27.26,27.26,0,0,0,7.55,9.13,164,164,0,0,1-11,41.3ZM366.83,237h-.23l-.24,0v-8.7H379a27.3,27.3,0,0,0,2.42,8.73ZM379,222.44H366.36v-8.71l.22,0h14.81A27.29,27.29,0,0,0,379,222.44Zm2.84-9.58H367a141.55,141.55,0,0,0-10.08-41.53l21.47-8.89a163.91,163.91,0,0,1,11,41.3A27.28,27.28,0,0,0,381.8,212.86Zm-3-51.53a166.17,166.17,0,0,0-35.65-53.18l17.49-17.49a191.25,191.25,0,0,1,40.95,61.23Zm-36.26-53.78A167.39,167.39,0,0,0,289.35,72l9.46-22.83A190.57,190.57,0,0,1,350.9,81.52q4.73,4.13,9.15,8.54Zm-54-35.92a165.34,165.34,0,0,0-62.79-12.52V34.44A190.92,190.92,0,0,1,298,48.81ZM224.93,59.11a165.33,165.33,0,0,0-62.8,12.5l-9.44-22.78a189.85,189.85,0,0,1,72.24-14.37ZM161.34,71.93a166.83,166.83,0,0,0-53.19,35.63L90.73,90.12a191.58,191.58,0,0,1,61.18-41Zm-53.79,36.23a166.83,166.83,0,0,0-35.63,53.19L49.14,151.9a191.58,191.58,0,0,1,41-61.18Zm-35.95,54a165.33,165.33,0,0,0-12.5,62.8H34.45a189.86,189.86,0,0,1,14.38-72.24Zm-12.5,63.65a165.33,165.33,0,0,0,12.5,62.8L48.82,298a189.86,189.86,0,0,1-14.38-72.24Zm12.82,63.59a166.83,166.83,0,0,0,35.63,53.19L90.12,360a191.58,191.58,0,0,1-41-61.18Zm36.23,53.79a166.83,166.83,0,0,0,53.19,35.63l-9.44,22.78a191.58,191.58,0,0,1-61.18-41Zm54,35.95a165.33,165.33,0,0,0,62.8,12.5v24.66a189.85,189.85,0,0,1-72.24-14.37Zm63.65,12.5a165.37,165.37,0,0,0,62.79-12.52L298,401.9a190.92,190.92,0,0,1-72.24,14.37Zm63.57-12.85a167.35,167.35,0,0,0,53.21-35.59L360,360.65q-4.42,4.4-9.14,8.53a190.57,190.57,0,0,1-52.1,32.4Zm53.81-36.19a166.16,166.16,0,0,0,35.65-53.18l22.78,9.44A191.25,191.25,0,0,1,360.65,360Zm36-54a164.79,164.79,0,0,0,11-41,27.27,27.27,0,0,0,13.24,5h0l10.88.64A189.56,189.56,0,0,1,401.92,298Zm5.37-209.9a216.47,216.47,0,0,1,40.68,63.43l-22.81,9.45a192.1,192.1,0,0,0-41.13-61.51L372.61,78.7ZM372,78.1,360.65,89.46q-4.44-4.42-9.19-8.58a191.41,191.41,0,0,0-52.32-32.53l9.45-22.81A216.18,216.18,0,0,1,372,66.2ZM225.35,10.56a2.06,2.06,0,1,1,2.06-2.06A2.06,2.06,0,0,1,225.35,10.56Zm-83.22,15,9.45,22.81A192.43,192.43,0,0,0,90.12,89.52L78.7,78.1V66.2A216.19,216.19,0,0,1,142.13,25.54ZM25.22,142.91,48,152.37A190.7,190.7,0,0,0,33.6,224.93H11.37A2.9,2.9,0,0,0,9,222.49,216.14,216.14,0,0,1,25.22,142.91ZM8.5,223.3a2.06,2.06,0,1,1-2.06,2.06A2.06,2.06,0,0,1,8.5,223.3Zm2.86,2.48H33.6A190.7,190.7,0,0,0,48,298.34l-22.82,9.45A216.14,216.14,0,0,1,9,228.21,2.9,2.9,0,0,0,11.37,225.78ZM78.7,372.61l11.42-11.42a192.43,192.43,0,0,0,61.45,41.16l-9.45,22.81a216.19,216.19,0,0,1-63.44-40.66Zm146.65,67.54a2.06,2.06,0,1,1-2.05,2.06A2.06,2.06,0,0,1,225.35,440.15Zm83.22-15-9.45-22.81a191.42,191.42,0,0,0,52.34-32.54q4.74-4.14,9.18-8.57L372,372.61v11.9A216.2,216.2,0,0,1,308.58,425.16Zm64-53.16-11.36-11.36a192.1,192.1,0,0,0,41.13-61.51l22.81,9.45A216.46,216.46,0,0,1,384.51,372ZM662.09,81.08,557.16,186a70.33,70.33,0,0,1-12-2.11L644.79,81.08ZM583.86,199.25a3.64,3.64,0,0,0,2.28,1.41,148,148,0,0,1-21.94,2.15,103.89,103.89,0,0,1-40.66-8.66c6.2-.5,15.76-4.94,20.4-9l.55-.57c5.79,1.77,15,2.83,27.45,3.16l5.67.17c5.08.15,10.3.31,15.08.31h.84l-1.76,1.17C585.06,193.7,582.54,196.83,583.86,199.25Zm-6.22-12.19-5.68-.16q-7.69-.2-13.71-.78l13.49-13.49,6,.34,2.12,2.74,5.85.34,3.31-2.43,6,.35-13.56,13.21Zm18.19-13.9-7.08-.41-3.31,2.43-5.16-.3-2.12-2.74-5.61-.32,21.27-21.27,6.34.36h.18l2.44-2.51,7.1.41,1.38,2.74,6.36.37Zm22.61-22-6.64-.38L610.42,148l-8-.46L600,150l-5.36-.31,26.48-26.48,6.3.36,1.84,2.78,6.88.4,3-2.5,6.4.37Zm28-27.25-7.51-.43-3,2.5-6.12-.35L628,123l-.16-.16-5.93-.36,21.4-21.4,7,.41,2.7-2.53,7.56.44,1.71,2.79,6,.34Zm22.75-22.17-6.32-.36-1.71-2.79-8.37-.48-2.7,2.53-5.92-.34,19.11-19.11-.06-.06h27.13ZM543.36,184.54c-4.57,4-14.56,8.57-20.47,8.79,4.62-3.15,9.45-7.4,18.19-16h0l2.88-3v9.55Zm-7.82-3v-4.92l4.68.39C538.52,178.66,537,180.17,535.54,181.52Zm-.85.8L532.95,184c-11.88-.69-24.07-1.14-36.41-1.37v-8.53q19.47.92,38.15,2.48Zm-39,.24q-8.75-.16-17.57-.16c-7.08,0-14.17.08-21.19.24v-9.78q19.68.26,38.77,1.15ZM667.3,202V191l2.68.12,11.64,8.22V202C676.7,202.14,672,202.1,667.3,202Zm-.85-11v11c-3.82-.1-7.63-.24-11.53-.39-13.29-.51-26.34-1.58-38.75-3.17V186c9.18,1.41,18.53,2.52,27.93,3.32C651.94,190,659.32,190.58,666.45,190.95Zm-51.13-5.06v12.4c-9.75-1.27-19.09-2.86-27.83-4.75a43.73,43.73,0,0,1,4.76-3.45l9.75-6.5,2.08.39Q609.64,185,615.31,185.89Zm-13.8-3-6.69,4.46c-3.81,0-8,0-12.19-.15L691.46,81.13l0-.05h48.86ZM947,44.58l-5.5,2.09-10.36-6.53,13.64-.23Zm-90.48-3.2,73.06-1.22,11.82,7.45,6-2.26,4.55,9.55c-20.74-4.1-55.35-7.8-97.83-10.46Zm-23.68,2.38,19.94,1.4v.05l1,.06c43,2.68,77.89,6.44,98.56,10.59l0,0,.71.13c18.77,3.51,19,6.88,19,7,0,1.63-5.43,5.39-20.4,9-14.74,3.59-34.09,6-54.53,6.92l-64.31,4.5c-3.26-2.18-7.64-3.29-13-3.29H565.5l-.85-1.66H804.42c24.83,0,48.17-1.51,65.73-4.25,12.57-2,27.56-5.41,27.56-10.67s-15-8.71-27.56-10.67c-17.56-2.74-40.9-4.25-65.73-4.25H564.65l.86-1.68H819.87C825.25,47,829.63,45.94,832.88,43.76ZM566.91,83l-1-1.89h6.67L566.93,83Zm-83-8.74h99.36L588.94,77v.72H488.73A24.53,24.53,0,0,1,483.9,74.23Zm-4.79-10.58c0-.43,0-.84.07-1.25h80.28a7.27,7.27,0,0,0,0,2.48h-80.3C479.14,64.47,479.12,64.06,479.12,63.65ZM585.84,49.56,582.5,53H484a24.64,24.64,0,0,1,4.82-3.48Zm-18.91-5.26,5.62,1.87h-6.6l1-1.87Zm-3.23,4.41H547.81l2.26-4.41H566Zm-16.83,0H531.41l2.26-4.41h15.45ZM501.1,70.83h64.21L563.92,70a7.37,7.37,0,0,1,0-12.79l1.39-.79H501.1c-2.95,0-5.54-1.09-6.32-2.55h83.3L576,56.83h-8.38a6.8,6.8,0,1,0,0,13.61H576l2.12,2.94h-83.3C495.55,71.91,498.16,70.83,501.1,70.83Zm81.18,2-3.59,0-2.28-3.17h-8.82a6,6,0,0,1,0-11.91h8.82l2.28-3.17h3.59l.59-.62H754.58c18.85,0,34.78,4.46,34.78,9.74s-15.93,9.74-34.78,9.74H583.46Zm172.3,1.43c20,0,35.63-4.65,35.63-10.59S774.56,53,754.58,53H583.68L587,49.56H804.42c24.78,0,48.08,1.51,65.6,4.24,17.06,2.66,26.84,6.25,26.84,9.83s-9.78,7.17-26.84,9.83c-17.52,2.74-40.81,4.24-65.6,4.24H589.79V76.46l-4.58-2.23ZM493.85,53.9a3.21,3.21,0,0,0,.46.85H482.44q.36-.44.75-.85Zm1.31,1.7a6.76,6.76,0,0,0,1.46.85H481.21c.18-.29.37-.57.57-.85Zm67.19,1.7a8.21,8.21,0,0,0-.87.85H480.31c.13-.29.26-.58.4-.85ZM560.82,59a8.26,8.26,0,0,0-.51.85H479.68c.09-.29.19-.57.29-.85Zm-.9,1.7a8.21,8.21,0,0,0-.28.85H479.31c0-.29.09-.57.16-.85Zm-.28,5a8.2,8.2,0,0,0,.28.85H479.41c-.06-.28-.1-.57-.14-.85Zm.66,1.7a8.26,8.26,0,0,0,.51.85H479.89c-.1-.28-.19-.56-.27-.85Zm1.18,1.7a8.21,8.21,0,0,0,.87.85H480.62c-.15-.28-.29-.56-.41-.85Zm-64.85,1.7a6.78,6.78,0,0,0-1.46.85H481.66c-.2-.28-.38-.56-.55-.85Zm-2.32,1.7a3.2,3.2,0,0,0-.46.85h-10.8c-.26-.28-.52-.56-.75-.85Zm52.55,6L549.12,83H533.67l-2.26-4.41Zm1,0h15.88L566,83H550.07Zm-15.1-34.26-2.26,4.41h-40a46.85,46.85,0,0,1,19.32-4.41ZM490.35,78.56h40.11L532.71,83H509.78A46.9,46.9,0,0,1,490.35,78.56Zm144,2.51h1.7L571.72,147.5a1.12,1.12,0,0,0-.32.78v4.79a.29.29,0,0,0,.51.2l69.93-72.2h1.76L544.81,183v-9.55ZM456.07,172.85v9.81q-4.71.11-9.37.25-.38-2-.79-4a1.48,1.48,0,0,0,1.13.53h4.25a1.49,1.49,0,1,0,0-3H447a1.49,1.49,0,0,0-1.42,1.07q-.52-2.41-1.09-4.8Q450.32,172.79,456.07,172.85ZM446.4,178a.64.64,0,0,1,.64-.64h4.25a.64.64,0,0,1,0,1.28H447A.64.64,0,0,1,446.4,178Zm-58-104-.86.86-4.63-4.63-2,2,4.63,4.63-1,1H372.86V66.19l1-1,4.63,4.63,2-2-4.63-4.63.87-.87Q382.82,67.92,388.41,74ZM372.68,58.58q1.75,1.55,3.46,3.13l-3.71,3.71A216.76,216.76,0,0,0,228.22,8.1a2.89,2.89,0,0,0-5.73,0A216.77,216.77,0,0,0,78.28,65.42l-3.7-3.71a222.5,222.5,0,0,1,298.1-3.14ZM68,68C70,66.06,71.95,64.17,74,62.3l.86.86-4.63,4.63,2,2,4.63-4.63,1,1V77.85H66.19l-1-1,4.63-4.63-2-2-4.63,4.63L62.3,74C64.17,71.95,66.06,70,68,68Zm-6.29,6.57,3.71,3.71A216.76,216.76,0,0,0,8.1,222.49a2.89,2.89,0,0,0,0,5.73A216.76,216.76,0,0,0,65.43,372.42l-3.71,3.71a222.48,222.48,0,0,1,0-301.55Zm.58,302.18.86-.86,4.63,4.63,2-2-4.63-4.63,1-1H77.85v11.66l-1,1-4.63-4.63-2,2,4.63,4.63-.86.86c-2-1.87-4-3.76-5.94-5.71S64.17,378.76,62.3,376.75Zm310.39,15.36A222.5,222.5,0,0,1,74.58,389l3.71-3.71a216.76,216.76,0,0,0,144.21,57.32,2.89,2.89,0,0,0,5.73,0,216.77,216.77,0,0,0,144.21-57.32l3.71,3.71Q374.43,390.57,372.68,392.12Zm4.08-3.7-.87-.87,4.63-4.63-2-2-4.63,4.63-1-1V372.86h11.66l1,1-4.63,4.63,2,2,4.63-4.63.86.86Q382.82,382.78,376.76,388.42Zm68.85-115.28a1.48,1.48,0,0,0,1.42,1.07h4.25a1.49,1.49,0,1,0,0-3H447a1.48,1.48,0,0,0-1.13.53q.42-2,.79-4,4.66.15,9.37.25v9.81q-5.75.07-11.55.08Q445.09,275.54,445.62,273.13Zm.78-.42a.64.64,0,0,1,.64-.64h4.25a.64.64,0,0,1,0,1.28H447A.64.64,0,0,1,446.4,272.72Zm98.41,4.5v-9.55l98.79,102h-1.76l-69.93-72.2a.29.29,0,0,0-.51.2v4.79a1.12,1.12,0,0,0,.32.78l64.34,66.42h-1.7Zm22.1,129.18-1-1.87h6.6l-5.62,1.87Zm-1,0H550.07L547.81,402h15.88ZM546.86,402l2.26,4.41H533.67L531.41,402Zm-58-.85a24.64,24.64,0,0,1-4.82-3.48H582.5l3.34,3.48Zm-9.73-14.09c0-.41,0-.82,0-1.23h80.3a7.27,7.27,0,0,0,0,2.48H479.19C479.15,387.9,479.12,387.48,479.12,387.06Zm14.73-9.73a3.2,3.2,0,0,0,.46.85h-12c.24-.29.49-.57.75-.85Zm88.42,18.86h-3.59L576.4,393h-8.82a6,6,0,0,1,0-11.91h8.82l2.28-3.17h3.41l1.29-.62h171.2c18.85,0,34.78,4.46,34.78,9.74s-15.93,9.74-34.78,9.74H582.86ZM576,380.27h-8.38a6.8,6.8,0,1,0,0,13.61H576l2.12,2.94h-83.3c.77-1.47,3.37-2.55,6.32-2.55h64.21l-1.39-.79a7.37,7.37,0,0,1,0-12.79l1.39-.79H501.1c-2.94,0-5.54-1.09-6.32-2.55h83.3ZM495.16,379a6.78,6.78,0,0,0,1.46.85H481.11c.17-.29.35-.57.55-.85Zm67.19,1.7a8.21,8.21,0,0,0-.87.85H480.21c.12-.29.27-.57.41-.85Zm-1.54,1.7a8.26,8.26,0,0,0-.51.85H479.62c.08-.29.17-.57.27-.85Zm-.9,1.7a8.2,8.2,0,0,0-.28.85H479.27c0-.29.08-.57.14-.85Zm-.28,5a8.21,8.21,0,0,0,.28.85H479.46c-.06-.28-.11-.56-.16-.85Zm.66,1.7a8.27,8.27,0,0,0,.51.85H480c-.1-.28-.2-.56-.29-.85Zm1.18,1.7a8.21,8.21,0,0,0,.87.85H480.72c-.15-.28-.28-.56-.4-.85Zm-64.86,1.7a6.76,6.76,0,0,0-1.46.85H481.78c-.2-.28-.39-.56-.57-.85Zm-2.31,1.7a3.21,3.21,0,0,0-.46.85H483.18q-.39-.41-.75-.85ZM587,401.14l-3.34-3.48h170.9c20,0,35.63-4.65,35.63-10.59s-15.65-10.59-35.63-10.59H585.15l4.64-2.23V373H804.42c24.78,0,48.08,1.51,65.6,4.24,17.06,2.66,26.84,6.25,26.84,9.83s-9.78,7.17-26.84,9.83c-17.52,2.74-40.81,4.24-65.6,4.24Zm1.92-27.43-5.68,2.76H483.9a24.53,24.53,0,0,1,4.82-3.48H588.94Zm-57.53-1.57,2.26-4.41h15.45l-2.26,4.41Zm16.4,0,2.26-4.41H566l-2.26,4.41Zm19.09-4.41h0l5.68,1.89h-6.67Zm-34.19,0-2.26,4.41H490.35a46.9,46.9,0,0,1,19.44-4.41ZM490.47,402h40l2.26,4.41H509.78A46.85,46.85,0,0,1,490.47,402Zm363.65,4.28c42.47-2.66,77.08-6.36,97.83-10.46l-4.55,9.55-6-2.26-11.82,7.45-73.06-1.22Zm90.69,4.53-13.64-.23L941.54,404l5.5,2.09Zm8.32-16.13-.71.13,0,0c-20.67,4.15-55.6,7.9-98.58,10.59l-1,.06v.05l-19.94,1.4c-3.25-2.18-7.63-3.28-13-3.28H565.51l-.86-1.68H804.42c24.83,0,48.17-1.51,65.73-4.25,12.57-2,27.56-5.41,27.56-10.67s-15-8.71-27.56-10.67c-17.56-2.74-40.9-4.25-65.73-4.25H564.65l.85-1.66H819.87c5.37,0,9.75-1.11,13-3.29l64.35,4.51c20.4.87,39.75,3.32,54.49,6.92,15,3.65,20.4,7.41,20.4,9C972.12,387.79,971.9,391.16,953.14,394.67ZM674.86,217.61H685v-6.93h-10.1Zm.85-6.08h8.4v5.23h-8.4Zm4.2.07a2.55,2.55,0,1,0,2.55,2.55A2.55,2.55,0,0,0,679.91,211.59Zm0,4.25a1.7,1.7,0,1,1,0-3.4,1.68,1.68,0,0,1,.89.26,2.49,2.49,0,0,0,0,2.89A1.68,1.68,0,0,1,679.91,215.84ZM674.86,240H685V233.1h-10.1Zm.85-6.08h8.4v5.23h-8.4Zm4.2.07a2.55,2.55,0,1,0,2.55,2.55A2.55,2.55,0,0,0,679.91,234Zm0,4.25a1.7,1.7,0,0,1,0-3.4,1.68,1.68,0,0,1,.89.26,2.49,2.49,0,0,0,0,2.89A1.68,1.68,0,0,1,679.91,238.27ZM691,227.11a4.59,4.59,0,0,1-1.17,1.63l-.29.26,3.21,4.41.35-.28a10,10,0,0,0,3.17-4.52l.15-.43-5.27-1.4Zm4.3,1.65a9.15,9.15,0,0,1-2.4,3.42l-2.23-3.06a5.43,5.43,0,0,0,1-1.33Zm-4.3-5.17.14.34,5.27-1.4-.15-.43a10,10,0,0,0-3.17-4.52l-.35-.28-3.21,4.41.29.26A4.57,4.57,0,0,1,691,223.59Zm1.9-5.06a9.15,9.15,0,0,1,2.4,3.42l-3.68,1a5.42,5.42,0,0,0-1-1.33Zm18.6,131.84h-5v18.54h30.78Zm-4.19.85h3.91l1.28.92h-5.19Zm0,1.77h6.37l1.28.92h-7.65Zm0,1.77h8.83l1.28.92h-10.1Zm0,1.77h11.28l1.28.92H707.29Zm0,1.77H721l1.28.92h-15Zm0,1.77h16.2l1.28.92H707.29Zm0,1.77h18.65l1.28.92H707.29Zm0,1.77H728.4l1.28.92H707.29Zm0,1.77h23.57l1.28.92H707.29Zm0,1.77h26l1.28.92h-27.3Zm-.85-285.35v18.54h5l25.74-18.54Zm4.76,17.69h-3.91v-.92h5.19Zm2.46-1.77h-6.37v-.92h7.65Zm2.46-1.77h-8.83V95h10.1Zm2.46-1.77H707.29v-.92h12.56ZM721,92.41H707.29v-.92h15Zm2.46-1.77h-16.2v-.92h17.47Zm2.46-1.77H707.29v-.92h19.93Zm2.46-1.77H707.29v-.92h22.38Zm2.46-1.77H707.29v-.92h24.84Zm-23.57-1.77v-.92h27.3l-1.28.92ZM125.78,295.79a1.33,1.33,0,0,0,.64-.83,1.35,1.35,0,0,0-.27-1l-2.22-3.36a1.53,1.53,0,0,0-.63-.58,2.16,2.16,0,0,0-1-.13l-2.52.12h-.1a2,2,0,0,0-.91.21.77.77,0,0,0-.39.63,1.57,1.57,0,0,0,.32.88l.25.38a.37.37,0,0,1,.08.28.39.39,0,0,1-.18.21L110,298.51a1.35,1.35,0,0,0-.64.83,1.33,1.33,0,0,0,.26,1l2.12,3.2a1.33,1.33,0,0,0,.82.63,1.35,1.35,0,0,0,1-.27Zm-13.16,7.82a.86.86,0,0,1-.51-.42l-2-3.06a.88.88,0,0,1-.2-.64,1,1,0,0,1,.45-.52l8.89-5.89a1,1,0,0,0,.45-.52.89.89,0,0,0-.2-.64l-.26-.4a1,1,0,0,1-.2-.49.35.35,0,0,1,.17-.32.67.67,0,0,1,.24-.1,1.86,1.86,0,0,1,.36,0l2.59-.11a1.63,1.63,0,0,1,.67.1,1.1,1.1,0,0,1,.45.42l2.14,3.24a.88.88,0,0,1,.2.63.92.92,0,0,1-.45.52l-12.13,8A1,1,0,0,1,112.62,303.6ZM102.7,163.82a.36.36,0,0,1,.07-.27l3.93-6.47a.64.64,0,0,1,.23-.24.78.78,0,0,1,.37-.06l13-.67a1.63,1.63,0,0,0,.69-.17,1.23,1.23,0,0,0,.46-.46,1,1,0,0,0,.1-.88,1.63,1.63,0,0,0-.73-.79l-8.55-5.19a.37.37,0,0,1-.19-.21.35.35,0,0,1,.06-.26l1.69-2.79a.36.36,0,0,1,.2-.18.38.38,0,0,1,.28.07l12.38,7.51a.34.34,0,0,1,.17.19.37.37,0,0,1-.08.27l-3.93,6.48a.61.61,0,0,1-.23.24,1,1,0,0,1-.36.07l-13,.67a1.71,1.71,0,0,0-.69.18,1.16,1.16,0,0,0-.44.43,1,1,0,0,0-.13.89,1.56,1.56,0,0,0,.71.78l8.58,5.21a.31.31,0,0,1,.16.2.41.41,0,0,1-.08.27l-1.68,2.78a.41.41,0,0,1-.21.2.32.32,0,0,1-.25-.06L102.89,164A.37.37,0,0,1,102.7,163.82Zm3.94,104.25a3.42,3.42,0,0,0,.77.22,1.5,1.5,0,0,0,.58,0l2.58-.71a1.26,1.26,0,0,0,.84-.58,1.47,1.47,0,0,0,0-1.07l-4.62-16.62a1.48,1.48,0,0,0-.57-.91,1.26,1.26,0,0,0-1-.06l-2.14.59a1.2,1.2,0,0,0-.94,1.67L105,260.92a.12.12,0,0,1,0,.07.06.06,0,0,1,0,0l-.08,0-12.15-5.17a2,2,0,0,0-.53-.14,1.14,1.14,0,0,0-.44,0,1.05,1.05,0,0,0-.72.54,1.45,1.45,0,0,0,0,1l1.21,4.35a1.46,1.46,0,0,0,.32.63,2.82,2.82,0,0,0,.88.5ZM93,261.85a1.07,1.07,0,0,1-.23-.46l-1.17-4.21a.9.9,0,0,1,0-.58.5.5,0,0,1,.35-.31.59.59,0,0,1,.25,0,1.58,1.58,0,0,1,.35.11l12.05,5.08a1.36,1.36,0,0,0,.4.13.81.81,0,0,0,.32,0,.43.43,0,0,0,.31-.27.85.85,0,0,0,0-.51l-2.87-10.34a1,1,0,0,1,0-.69.86.86,0,0,1,.56-.34l2-.56a.84.84,0,0,1,.65,0,1,1,0,0,1,.34.6L110.88,266a1,1,0,0,1,0,.69.82.82,0,0,1-.55.35l-2.41.67a1.3,1.3,0,0,1-.44.05,2.27,2.27,0,0,1-.58-.16l-13.5-5.44A1.29,1.29,0,0,1,93,261.85Zm16.85,13.58-6.23,3a1,1,0,0,0-.54.55,1,1,0,0,0,.09.77l3.57,7.38a1,1,0,0,0,.55.56,1,1,0,0,0,.77-.09l6.23-3a1,1,0,0,0,.54-.55,1,1,0,0,0-.1-.78l-3.57-7.38a1,1,0,0,0-.54-.55A1,1,0,0,0,109.83,275.43Zm4.37,8.1a.49.49,0,0,1,.07.34.45.45,0,0,1-.25.21l-6.23,3a.47.47,0,0,1-.34.06.48.48,0,0,1-.23-.26l-3.57-7.38a.42.42,0,0,1-.06-.32.52.52,0,0,1,.27-.22l6.23-3a.49.49,0,0,1,.32-.08c.07,0,.14.1.21.25Zm-7.94-36.94a1.35,1.35,0,0,0,.18-1l-.59-4a1.52,1.52,0,0,0-.33-.79,2.15,2.15,0,0,0-.83-.53l-2.33-1-.09,0a2,2,0,0,0-.92-.2.77.77,0,0,0-.62.4,1.56,1.56,0,0,0-.08.94l.07.45a.36.36,0,0,1,0,.28.38.38,0,0,1-.25.12l-10.58,1.56a1.35,1.35,0,0,0-.94.48,1.33,1.33,0,0,0-.19,1l.56,3.79a1.33,1.33,0,0,0,.47.92,1.35,1.35,0,0,0,1,.19l14.54-2.14A1.33,1.33,0,0,0,106.25,246.6Zm-15.48,2a1,1,0,0,1-.68-.08.86.86,0,0,1-.28-.6l-.53-3.64a.88.88,0,0,1,.09-.67.94.94,0,0,1,.63-.28l10.56-1.55a1,1,0,0,0,.63-.28.89.89,0,0,0,.09-.67l-.07-.47a1,1,0,0,1,0-.54.35.35,0,0,1,.29-.22.69.69,0,0,1,.26,0,1.93,1.93,0,0,1,.34.13l2.39,1a1.63,1.63,0,0,1,.57.37,1.11,1.11,0,0,1,.23.57l.57,3.84a.89.89,0,0,1-.09.66.93.93,0,0,1-.63.28Zm-2.21-34.89a3.44,3.44,0,0,0,2.34,1.4l1.11.17a1.5,1.5,0,0,0,1.17-.24,1.58,1.58,0,0,0,.58-1.08l.54-3.4a1.79,1.79,0,0,0,0-.91,1.12,1.12,0,0,0-.55-.55,1.11,1.11,0,0,1-.36-.27.48.48,0,0,1,0-.32l1.28-8.1a.45.45,0,0,1,.13-.3.5.5,0,0,1,.33,0l6.62,1a.52.52,0,0,1,.33.13.43.43,0,0,1,0,.32l-1.28,8.1a.55.55,0,0,1-.36.42h0a1.83,1.83,0,0,0-.73.48,1.65,1.65,0,0,0-.29.78l-.54,3.4A1.58,1.58,0,0,0,99,216a1.5,1.5,0,0,0,1,.58l.93.15a3.48,3.48,0,0,0,4.06-2.94l2.32-14.7a3.48,3.48,0,0,0-.61-2.67,3.42,3.42,0,0,0-2.34-1.41l-10.12-1.59a3.42,3.42,0,0,0-2.66.63,3.47,3.47,0,0,0-1.41,2.35l-2.32,14.7A3.42,3.42,0,0,0,88.55,213.75Zm-.07-2.56,2.32-14.7a3,3,0,0,1,3.43-2.5l10.12,1.59a3,3,0,0,1,2.5,3.43l-2.32,14.7a2.85,2.85,0,0,1-1.18,2,2.93,2.93,0,0,1-2.25.5l-.93-.15a1,1,0,0,1-.68-.37,1,1,0,0,1-.13-.77l.54-3.4a1,1,0,0,1,.67-.82l.07,0a1.1,1.1,0,0,0,.47-.32,1.15,1.15,0,0,0,.19-.52l1.28-8.1a1,1,0,0,0-.13-.76,1,1,0,0,0-.68-.37l-6.62-1a1,1,0,0,0-.74.14,1,1,0,0,0-.36.69l-1.28,8.1a1.21,1.21,0,0,0,.07.67q.13.3.28.32a.7.7,0,0,1,.52.34,1.06,1.06,0,0,1,.1.72l-.54,3.4a1,1,0,0,1-.36.7,1,1,0,0,1-.76.14L91,214.58a2.93,2.93,0,0,1-2-1.17A2.85,2.85,0,0,1,88.48,211.18ZM107.11,267l-13.35-5.38h0a.74.74,0,0,1-.48-.45l-1.12-4a.24.24,0,0,1,0-.16.13.13,0,0,1,.09-.07h.13l.12,0,12,5.08a1.91,1.91,0,0,0,.54.17,1.15,1.15,0,0,0,.47,0,1,1,0,0,0,.7-.56,1.62,1.62,0,0,0,0-1.06l-2.84-10.22a.33.33,0,0,1,0-.26.38.38,0,0,1,.23-.13l1.86-.52a.26.26,0,0,1,.39.22l4.55,16.38a.26.26,0,0,1-.22.39l-2.32.64a1,1,0,0,1-.63,0ZM102.19,165l12.57,7.63a1.32,1.32,0,0,0,1,.23,1.34,1.34,0,0,0,.79-.67l1.87-3.08a1.37,1.37,0,0,0,.23-1,1.33,1.33,0,0,0-.67-.8L109.31,162l0,0s0,0,0-.06l0,0h0l12.87-.67a2.19,2.19,0,0,0,.91-.19,1.51,1.51,0,0,0,.52-.55l4.11-6.77a1.36,1.36,0,0,0,.23-1,1.33,1.33,0,0,0-.67-.8l-12.57-7.62a1.18,1.18,0,0,0-1.83.45l-1.87,3.08a1.33,1.33,0,0,0-.23,1,1.37,1.37,0,0,0,.68.8l8.67,5.26.05.06s0,0,0,.06l0,0h-.07l-12.86.68a2.22,2.22,0,0,0-.92.18,1.47,1.47,0,0,0-.52.55l-4.12,6.78a1.18,1.18,0,0,0,.45,1.82Zm.06-1.61,4-6.63a1,1,0,0,1,.39-.4,1.73,1.73,0,0,1,.71-.12l12.78-.67a1.28,1.28,0,0,0,.47-.11.73.73,0,0,0,.29-.29.42.42,0,0,0,0-.41.91.91,0,0,0-.38-.4l-8.65-5.25a1,1,0,0,1-.47-.5.86.86,0,0,1,.17-.64l1.79-3a.86.86,0,0,1,.49-.45,1,1,0,0,1,.66.19L127,152.28a1,1,0,0,1,.47.49.87.87,0,0,1-.18.64l-4,6.63a1.11,1.11,0,0,1-.39.42,1.71,1.71,0,0,1-.7.12l-12.79.66a1.27,1.27,0,0,0-.47.09.62.62,0,0,0-.27.25.48.48,0,0,0,0,.44.85.85,0,0,0,.38.4l8.66,5.26a.93.93,0,0,1,.47.5.9.9,0,0,1-.18.65l-1.79,2.94a.91.91,0,0,1-.49.46A.93.93,0,0,1,115,172l-12.44-7.55a1,1,0,0,1-.47-.5A.88.88,0,0,1,102.25,163.35Zm2.53,78.55.54,3.66a.41.41,0,0,1,0,.28.31.31,0,0,1-.23.12l-14.32,2.11a.31.31,0,0,1-.4-.3l-.51-3.45a.34.34,0,0,1,0-.27.4.4,0,0,1,.26-.11l10.58-1.56a1.35,1.35,0,0,0,.94-.48,1.34,1.34,0,0,0,.19-1l0-.33a.29.29,0,0,1,0-.18.12.12,0,0,1,.09-.08H102l.13,0,2.24,1a.73.73,0,0,1,.29.2A.75.75,0,0,1,104.78,241.9Zm20.36,52.52a.41.41,0,0,1,.09.26.3.3,0,0,1-.16.21l-12.07,8a.31.31,0,0,1-.49-.1l-1.93-2.91a.34.34,0,0,1-.08-.26.4.4,0,0,1,.19-.21l8.91-5.91a1.35,1.35,0,0,0,.64-.83,1.33,1.33,0,0,0-.26-1l-.18-.27a.3.3,0,0,1-.06-.17.12.12,0,0,1,.05-.11l.09,0H120l2.45-.07a.72.72,0,0,1,.35.06.74.74,0,0,1,.28.27ZM89.46,213.06a2.29,2.29,0,0,1-.43-1.79l2.32-14.7a2.29,2.29,0,0,1,1-1.58,2.4,2.4,0,0,1,1.83-.41l10.12,1.59a2.4,2.4,0,0,1,1.62,1,2.31,2.31,0,0,1,.43,1.8L104,213.63a2.29,2.29,0,0,1-1,1.57,2.4,2.4,0,0,1-1.84.41l-.93-.15a.48.48,0,0,1-.31-.13.57.57,0,0,1-.08-.35l.54-3.41a.56.56,0,0,1,.08-.24.41.41,0,0,1,.2-.13,2.07,2.07,0,0,0,.86-.54,1.74,1.74,0,0,0,.28-.78l1.28-8.1a1.57,1.57,0,0,0-.23-1.2,1.47,1.47,0,0,0-1-.6l-6.62-1a1.48,1.48,0,0,0-1.17.24,1.58,1.58,0,0,0-.58,1.08l-1.28,8.1a1.68,1.68,0,0,0,.06.94A1.74,1.74,0,0,0,93,210a.34.34,0,0,1,.16.16.55.55,0,0,1,0,.28l-.54,3.4a.35.35,0,0,1-.49.36L91.08,214A2.41,2.41,0,0,1,89.46,213.06Z"/></g></svg>