<svg id="Port_elevation" data-name="Port elevation" xmlns="http://www.w3.org/2000/svg" viewBox="0 0 977.95 232.44"><defs><style>.cls-1{fill:#ce0000;}</style></defs><title>Port elevation</title><path class="cls-1" d="M9.08,58h.84a1.49,1.49,0,1,0,0-3H9.08a1.49,1.49,0,1,0,0,3Zm0-2.13h.84a.64.64,0,0,1,0,1.28H9.08a.64.64,0,0,1,0-1.28ZM17,58h.84a1.49,1.49,0,1,0,0-3H17a1.49,1.49,0,1,0,0,3Zm0-2.13h.84a.64.64,0,0,1,0,1.28H17a.64.64,0,0,1,0-1.28ZM31.1,58h.84a1.49,1.49,0,1,0,0-3H31.1a1.49,1.49,0,1,0,0,3Zm0-2.13h.84a.64.64,0,0,1,0,1.28H31.1a.64.64,0,0,1,0-1.28ZM39,58h.84a1.49,1.49,0,1,0,0-3H39a1.49,1.49,0,1,0,0,3Zm0-2.13h.84a.64.64,0,0,1,0,1.28H39a.64.64,0,0,1,0-1.28ZM13.45,58c.53,0,.92-.63.92-1.49S14,55,13.45,55s-.92.63-.92,1.49S12.92,58,13.45,58Zm0-2a1.71,1.71,0,0,1,0,1,1.7,1.7,0,0,1,0-1Zm7.37,2c.53,0,.92-.63.92-1.49S21.35,55,20.82,55s-.92.63-.92,1.49S20.29,58,20.82,58Zm0-2a1.71,1.71,0,0,1,0,1,1.7,1.7,0,0,1,0-1Zm2.43,2c.53,0,.92-.63.92-1.49S23.78,55,23.25,55s-.92.63-.92,1.49S22.71,58,23.25,58Zm0-2a1.7,1.7,0,0,1,0,1,1.71,1.71,0,0,1,0-1Zm-.81,8.2c.53,0,.92-.63.92-1.49s-.39-1.49-.92-1.49-.92.63-.92,1.49S21.9,64.26,22.44,64.26Zm0-2a1.71,1.71,0,0,1,0,1,1.7,1.7,0,0,1,0-1ZM25.67,58c.53,0,.92-.63.92-1.49S26.21,55,25.67,55s-.92.63-.92,1.49S25.14,58,25.67,58Zm0-2a1.7,1.7,0,0,1,0,1,1.7,1.7,0,0,1,0-1Zm2.43,2c.53,0,.92-.63.92-1.49S28.63,55,28.1,55s-.92.63-.92,1.49S27.57,58,28.1,58Zm0-2a1.7,1.7,0,0,1,0,1,1.71,1.71,0,0,1,0-1Zm-1.62,8.2c.53,0,.92-.63.92-1.49s-.39-1.49-.92-1.49-.92.63-.92,1.49S26,64.26,26.48,64.26Zm0-2a1.7,1.7,0,0,1,0,1,1.71,1.71,0,0,1,0-1Zm9-4.27c.53,0,.92-.63.92-1.49S36,55,35.47,55s-.92.63-.92,1.49S34.94,58,35.47,58Zm0-2a1.7,1.7,0,0,1,0,1,1.71,1.71,0,0,1,0-1Zm374.3,2h.84a1.49,1.49,0,1,0,0-3h-.84a1.49,1.49,0,1,0,0,3Zm0-2.13h.84a.64.64,0,0,1,0,1.28h-.84a.64.64,0,0,1,0-1.28Zm7.9,2.13h.84a1.49,1.49,0,1,0,0-3h-.84a1.49,1.49,0,1,0,0,3Zm0-2.13h.84a.64.64,0,0,1,0,1.28h-.84a.64.64,0,0,1,0-1.28ZM431.79,58h.84a1.49,1.49,0,1,0,0-3h-.84a1.49,1.49,0,1,0,0,3Zm0-2.13h.84a.64.64,0,0,1,0,1.28h-.84a.64.64,0,0,1,0-1.28Zm7.9,2.13h.84a1.49,1.49,0,1,0,0-3h-.84a1.49,1.49,0,1,0,0,3Zm0-2.13h.84a.64.64,0,0,1,0,1.28h-.84a.64.64,0,0,1,0-1.28ZM414.14,58c.53,0,.92-.63.92-1.49s-.39-1.49-.92-1.49-.92.63-.92,1.49S413.61,58,414.14,58Zm0-2a1.7,1.7,0,0,1,0,1,1.71,1.71,0,0,1,0-1Zm7.37,2c.53,0,.92-.63.92-1.49S422,55,421.51,55s-.92.63-.92,1.49S421,58,421.51,58Zm0-2a1.7,1.7,0,0,1,0,1,1.71,1.71,0,0,1,0-1Zm2.43,2c.53,0,.92-.63.92-1.49s-.39-1.49-.92-1.49-.92.63-.92,1.49S423.4,58,423.93,58Zm0-2a1.7,1.7,0,1,1-.07.48A1.54,1.54,0,0,1,423.93,56.06Zm-.81,5.23c-.53,0-.92.63-.92,1.49s.39,1.49.92,1.49.92-.63.92-1.49S423.66,61.29,423.12,61.29Zm0,2a1.71,1.71,0,0,1,0-1,1.7,1.7,0,0,1,0,1ZM426.36,58c.53,0,.92-.63.92-1.49s-.39-1.49-.92-1.49-.92.63-.92,1.49S425.83,58,426.36,58Zm0-2a1.7,1.7,0,0,1,0,1,1.71,1.71,0,0,1,0-1Zm2.43,2c.53,0,.92-.63.92-1.49s-.39-1.49-.92-1.49-.92.63-.92,1.49S428.26,58,428.79,58Zm0-2a1.7,1.7,0,1,1-.07.48A1.54,1.54,0,0,1,428.79,56.06Zm-1.62,5.23c-.53,0-.92.63-.92,1.49s.39,1.49.92,1.49.92-.63.92-1.49S427.7,61.29,427.17,61.29Zm0,2a1.7,1.7,0,1,1,.07-.48A1.54,1.54,0,0,1,427.17,63.25Zm9-5.23c.53,0,.92-.63.92-1.49s-.39-1.49-.92-1.49-.92.63-.92,1.49S435.62,58,436.16,58Zm0-2a1.7,1.7,0,1,1-.07.48A1.54,1.54,0,0,1,436.16,56.06ZM107.51,58h4.25a1.49,1.49,0,1,0,0-3h-4.25a1.49,1.49,0,1,0,0,3Zm0-2.13h4.25a.64.64,0,0,1,0,1.28h-4.25a.64.64,0,0,1,0-1.28Zm17,2.13h4.25a1.49,1.49,0,1,0,0-3h-4.25a1.49,1.49,0,1,0,0,3Zm0-2.13h4.25a.64.64,0,0,1,0,1.28h-4.25a.64.64,0,0,1,0-1.28ZM154.88,58h4.25a1.49,1.49,0,1,0,0-3h-4.25a1.49,1.49,0,1,0,0,3Zm0-2.13h4.25a.64.64,0,0,1,0,1.28h-4.25a.64.64,0,0,1,0-1.28Zm17,2.13h4.25a1.49,1.49,0,1,0,0-3h-4.25a1.49,1.49,0,1,0,0,3Zm0-2.13h4.25a.64.64,0,0,1,0,1.28h-4.25a.64.64,0,0,1,0-1.28ZM118.13,58a1.49,1.49,0,1,0-1.49-1.49A1.49,1.49,0,0,0,118.13,58Zm0-2.13a.64.64,0,1,1-.64.64A.64.64,0,0,1,118.13,55.9ZM134,58a1.49,1.49,0,1,0-1.49-1.49A1.49,1.49,0,0,0,134,58Zm0-2.13a.64.64,0,1,1-.64.64A.64.64,0,0,1,134,55.9ZM139.21,58a1.49,1.49,0,1,0-1.49-1.49A1.49,1.49,0,0,0,139.21,58Zm0-2.13a.64.64,0,1,1-.64.64A.64.64,0,0,1,139.21,55.9Zm-1.74,8.36A1.49,1.49,0,1,0,136,62.77,1.49,1.49,0,0,0,137.46,64.26Zm0-2.13a.64.64,0,1,1-.64.64A.64.64,0,0,1,137.46,62.13Zm7-4.11a1.49,1.49,0,1,0-1.49-1.49A1.49,1.49,0,0,0,144.43,58Zm0-2.13a.64.64,0,1,1-.64.64A.64.64,0,0,1,144.43,55.9ZM149.66,58a1.49,1.49,0,1,0-1.49-1.49A1.49,1.49,0,0,0,149.66,58Zm0-2.13a.64.64,0,1,1-.64.64A.64.64,0,0,1,149.66,55.9Zm-3.48,8.36a1.49,1.49,0,1,0-1.49-1.49A1.49,1.49,0,0,0,146.17,64.26Zm0-2.13a.64.64,0,1,1-.64.64A.64.64,0,0,1,146.17,62.13ZM165.51,58A1.49,1.49,0,1,0,164,56.54,1.49,1.49,0,0,0,165.51,58Zm0-2.13a.64.64,0,1,1-.64.64A.64.64,0,0,1,165.51,55.9Zm108,2.13h4.25a1.49,1.49,0,1,0,0-3h-4.25a1.49,1.49,0,1,0,0,3Zm0-2.13h4.25a.64.64,0,0,1,0,1.28h-4.25a.64.64,0,0,1,0-1.28Zm17,2.13h4.25a1.49,1.49,0,1,0,0-3h-4.25a1.49,1.49,0,1,0,0,3Zm0-2.13h4.25a.64.64,0,0,1,0,1.28h-4.25a.64.64,0,0,1,0-1.28ZM320.85,58h4.25a1.49,1.49,0,1,0,0-3h-4.25a1.49,1.49,0,1,0,0,3Zm0-2.13h4.25a.64.64,0,0,1,0,1.28h-4.25a.64.64,0,0,1,0-1.28Zm17,2.13h4.25a1.49,1.49,0,1,0,0-3h-4.25a1.49,1.49,0,1,0,0,3Zm0-2.13h4.25a.64.64,0,0,1,0,1.28h-4.25a.64.64,0,0,1,0-1.28ZM284.1,58a1.49,1.49,0,1,0-1.49-1.49A1.49,1.49,0,0,0,284.1,58Zm0-2.13a.64.64,0,1,1-.64.64A.64.64,0,0,1,284.1,55.9ZM300,58a1.49,1.49,0,1,0-1.49-1.49A1.49,1.49,0,0,0,300,58Zm0-2.13a.64.64,0,1,1-.64.64A.64.64,0,0,1,300,55.9ZM305.18,58a1.49,1.49,0,1,0-1.49-1.49A1.49,1.49,0,0,0,305.18,58Zm0-2.13a.64.64,0,1,1-.64.64A.64.64,0,0,1,305.18,55.9Zm-1.74,5.39a1.49,1.49,0,1,0,1.49,1.49A1.49,1.49,0,0,0,303.43,61.29Zm0,2.13a.64.64,0,1,1,.64-.64A.64.64,0,0,1,303.43,63.41Zm7-5.39a1.49,1.49,0,1,0-1.49-1.49A1.49,1.49,0,0,0,310.4,58Zm0-2.13a.64.64,0,1,1-.64.64A.64.64,0,0,1,310.4,55.9ZM315.63,58a1.49,1.49,0,1,0-1.49-1.49A1.49,1.49,0,0,0,315.63,58Zm0-2.13a.64.64,0,1,1-.64.64A.64.64,0,0,1,315.63,55.9Zm-3.48,5.39a1.49,1.49,0,1,0,1.49,1.49A1.49,1.49,0,0,0,312.14,61.29Zm0,2.13a.64.64,0,1,1,.64-.64A.64.64,0,0,1,312.14,63.41ZM331.48,58A1.49,1.49,0,1,0,330,56.54,1.49,1.49,0,0,0,331.48,58Zm0-2.13a.64.64,0,1,1-.64.64A.64.64,0,0,1,331.48,55.9ZM61.79,51.68l.63-1.28h4l-.63,1.28Zm10.16,0h-4l.63-1.28h4ZM62.42,68.89l-.63-1.28h4l.63,1.28Zm6.14,0-.63-1.28h4l.63,1.28ZM387.81,51.68h-4l-.63-1.28h4ZM381,50.4l.63,1.28h-4L377,50.4Zm6.14,18.49h-4l.63-1.28h4Zm-9.53-1.28h4L381,68.89h-4ZM216.3,55.06v9.06h2.13V55.06Zm1.28,8.21h-.43V55.91h.43Zm13.61-8.21v9.06h2.13V55.06Zm1.28,8.21H232V55.91h.42ZM198,27.91a1.75,1.75,0,0,0,1.71-1.11,1.67,1.67,0,0,0,1.63,1.11,1.5,1.5,0,1,0,0-3A1.67,1.67,0,0,0,199.72,26,1.75,1.75,0,0,0,198,24.94a1.66,1.66,0,0,0-1.78,1.49A1.66,1.66,0,0,0,198,27.91Zm3.35-2.13c.46,0,.84.29.84.64s-.39.64-.84.64-.84-.29-.84-.64S200.89,25.79,201.35,25.79Zm-3.35,0c.5,0,.93.29.93.64s-.43.64-.93.64-.93-.29-.93-.64S197.5,25.79,198,25.79Zm38.85,2.13a1.69,1.69,0,0,0,1.83-1.49,1.87,1.87,0,0,0-3.66,0A1.69,1.69,0,0,0,236.85,27.91Zm0-2.13c.53,0,1,.29,1,.64s-.45.64-1,.64-1-.29-1-.64S236.32,25.79,236.85,25.79Zm4.26,2.13a1.68,1.68,0,0,0,1.82-1.49,1.86,1.86,0,0,0-3.64,0A1.68,1.68,0,0,0,241.11,27.91Zm0-2.13c.53,0,1,.29,1,.64s-.44.64-1,.64-1-.29-1-.64S240.58,25.79,241.11,25.79Zm20.37,2.13h3.84a1.49,1.49,0,1,0,0-3h-3.84a1.49,1.49,0,1,0,0,3Zm0-2.13h3.84a.64.64,0,0,1,0,1.28h-3.84a.64.64,0,0,1,0-1.28ZM253.84,11H242l-6.47,6.51h18.29Zm-11.47.85h4v1.64h-5.59Zm-2.48,2.49h9.56v2.31H237.59ZM253,16.69h-2.68V13.52h-3.12V11.88H253ZM208.8,77.42c-1.37,0-2.41.64-2.41,1.49s1,1.49,2.41,1.49,2.41-.64,2.41-1.49S210.17,77.42,208.8,77.42Zm0,2.13c-.94,0-1.56-.38-1.56-.64s.62-.64,1.56-.64,1.56.38,1.56.64S209.74,79.54,208.8,79.54Zm32-2.13c-1.37,0-2.41.64-2.41,1.49s1,1.49,2.41,1.49,2.41-.64,2.41-1.49S242.18,77.42,240.81,77.42Zm0,2.13c-.94,0-1.56-.38-1.56-.64s.62-.64,1.56-.64,1.56.38,1.56.64S241.75,79.54,240.81,79.54Zm-27,6.07c-1.37,0-2.41.64-2.41,1.49s1,1.49,2.41,1.49,2.41-.64,2.41-1.49S215.17,85.61,213.8,85.61Zm0,2.13c-.94,0-1.56-.38-1.56-.64s.62-.64,1.56-.64,1.56.38,1.56.64S214.74,87.74,213.8,87.74Zm7.34-2.13c-1.37,0-2.41.64-2.41,1.49s1,1.49,2.41,1.49,2.41-.64,2.41-1.49S222.51,85.61,221.14,85.61Zm0,2.13c-.94,0-1.56-.38-1.56-.64s.62-.64,1.56-.64,1.56.38,1.56.64S222.07,87.74,221.14,87.74Zm7.34-2.13c-1.37,0-2.41.64-2.41,1.49s1,1.49,2.41,1.49,2.41-.64,2.41-1.49S229.85,85.61,228.47,85.61Zm0,2.13c-.94,0-1.56-.38-1.56-.64s.62-.64,1.56-.64,1.56.38,1.56.64S229.41,87.74,228.47,87.74Zm7.34-2.13c-1.37,0-2.41.64-2.41,1.49s1,1.49,2.41,1.49,2.41-.64,2.41-1.49S237.18,85.61,235.81,85.61Zm0,2.13c-.94,0-1.56-.38-1.56-.64s.62-.64,1.56-.64,1.56.38,1.56.64S236.75,87.74,235.81,87.74Zm-16.59,5.1a.85.85,0,1,1,.85.85A.85.85,0,0,1,219.22,92.84Zm9.48,0a.85.85,0,1,1,.85.85A.85.85,0,0,1,228.69,92.84ZM368.57,76.23a1.49,1.49,0,1,0-1.49-1.49A1.49,1.49,0,0,0,368.57,76.23Zm0-2.13a.64.64,0,1,1-.64.64A.64.64,0,0,1,368.57,74.11Zm49.1,2.13a1.49,1.49,0,1,0-1.49-1.49A1.49,1.49,0,0,0,417.67,76.23Zm0-2.13a.64.64,0,1,1-.64.64A.64.64,0,0,1,417.67,74.11Zm-49.1,9.19a1.49,1.49,0,1,0,1.49,1.49A1.49,1.49,0,0,0,368.57,83.29Zm0,2.13a.64.64,0,1,1,.64-.64A.64.64,0,0,1,368.57,85.42Zm5.93-2.13A1.49,1.49,0,1,0,376,84.78,1.49,1.49,0,0,0,374.5,83.29Zm0,2.13a.64.64,0,1,1,.64-.64A.64.64,0,0,1,374.5,85.42Zm43.17-2.13a1.49,1.49,0,1,0,1.49,1.49A1.49,1.49,0,0,0,417.67,83.29Zm0,2.13a.64.64,0,1,1,.64-.64A.64.64,0,0,1,417.67,85.42Zm-30.28,9.4a1.49,1.49,0,1,0-1.49,1.49A1.49,1.49,0,0,0,387.39,94.82Zm-1.49.64a.64.64,0,1,1,.64-.64A.64.64,0,0,1,385.9,95.46Zm31.77-2.13a1.49,1.49,0,1,0,1.49,1.49A1.49,1.49,0,0,0,417.67,93.33Zm0,2.13a.64.64,0,1,1,.64-.64A.64.64,0,0,1,417.67,95.46Zm0,7.91a1.49,1.49,0,1,0,1.49,1.49A1.49,1.49,0,0,0,417.67,103.37Zm0,2.13a.64.64,0,1,1,.64-.64A.64.64,0,0,1,417.67,105.5Zm9.59-12.17a1.49,1.49,0,1,0,1.49,1.49A1.49,1.49,0,0,0,427.26,93.33Zm0,2.13a.64.64,0,1,1,.64-.64A.64.64,0,0,1,427.26,95.46Zm0,7.91a1.49,1.49,0,1,0,1.49,1.49A1.49,1.49,0,0,0,427.26,103.37Zm0,2.13a.64.64,0,1,1,.64-.64A.64.64,0,0,1,427.26,105.5Zm5.58,14.29a1.49,1.49,0,1,0,1.49,1.49A1.49,1.49,0,0,0,432.84,119.79Zm0,2.13a.64.64,0,1,1,.64-.64A.64.64,0,0,1,432.84,121.92Zm28.08-2.13a1.49,1.49,0,1,0,1.49,1.49A1.49,1.49,0,0,0,460.92,119.79Zm0,2.13a.64.64,0,1,1,.64-.64A.64.64,0,0,1,460.92,121.92ZM457,170.75a1.49,1.49,0,1,0-1.49-1.49A1.49,1.49,0,0,0,457,170.75Zm0-2.13a.64.64,0,1,1-.64.64A.64.64,0,0,1,457,168.62Zm0,14.27a1.49,1.49,0,1,0,1.49,1.49A1.49,1.49,0,0,0,457,182.89Zm0,2.13a.64.64,0,1,1,.64-.64A.64.64,0,0,1,457,185Zm31.73-14.27a1.49,1.49,0,1,0-1.49-1.49A1.49,1.49,0,0,0,488.78,170.75Zm0-2.13a.64.64,0,1,1-.64.64A.64.64,0,0,1,488.78,168.62Zm35.35,2.13a1.49,1.49,0,1,0-1.49-1.49A1.49,1.49,0,0,0,524.13,170.75Zm0-2.13a.64.64,0,1,1-.64.64A.64.64,0,0,1,524.13,168.62Zm4.6-24.13a4.08,4.08,0,0,0-1.75-.32,1.32,1.32,0,0,0-1.25.72c-.32.79.49,1.8,1.89,2.36a4.3,4.3,0,0,0,1.56.33h.19a1.32,1.32,0,0,0,1.25-.72C530.93,146.06,530.12,145,528.73,144.49Zm.58,2.24a3.52,3.52,0,0,1-1.38-.26c-1-.41-1.5-1-1.42-1.26s.21-.17.51-.19h.13a3.48,3.48,0,0,1,1.25.27c1,.41,1.5,1,1.41,1.26S529.62,146.7,529.31,146.72Zm.3,24a1.49,1.49,0,1,0-1.49-1.49A1.49,1.49,0,0,0,529.61,170.75Zm0-2.13a.64.64,0,1,1-.64.64A.64.64,0,0,1,529.61,168.62Zm28.9,2.13a1.49,1.49,0,1,0-1.49-1.49A1.49,1.49,0,0,0,558.51,170.75Zm0-2.13a.64.64,0,1,1-.64.64A.64.64,0,0,1,558.51,168.62Zm21.42-.85a1.49,1.49,0,1,0,1.49,1.49A1.49,1.49,0,0,0,579.93,167.77Zm0,2.13a.64.64,0,1,1,.64-.64A.64.64,0,0,1,579.93,169.9Zm5,11.18a1.49,1.49,0,1,0,1.49,1.49A1.49,1.49,0,0,0,584.89,181.08Zm0,2.13a.64.64,0,1,1,.64-.64A.64.64,0,0,1,584.89,183.2Zm-15.91,15a1.49,1.49,0,1,0,1.49,1.49A1.49,1.49,0,0,0,569,198.23Zm0,2.13a.64.64,0,1,1,.64-.64A.64.64,0,0,1,569,200.35Zm29.32-19.28a1.49,1.49,0,1,0,1.49,1.49A1.49,1.49,0,0,0,598.31,181.08Zm0,2.13a.64.64,0,1,1,.64-.64A.64.64,0,0,1,598.31,183.2Zm13.12-2.13a1.49,1.49,0,1,0,1.49,1.49A1.49,1.49,0,0,0,611.42,181.08Zm0,2.13a.64.64,0,1,1,.64-.64A.64.64,0,0,1,611.42,183.2ZM567.48,160a1.49,1.49,0,1,0-1.49-1.49A1.49,1.49,0,0,0,567.48,160Zm0-2.13a.64.64,0,1,1-.64.64A.64.64,0,0,1,567.48,157.9ZM579.93,160a1.49,1.49,0,1,0-1.49-1.49A1.49,1.49,0,0,0,579.93,160Zm0-2.13a.64.64,0,1,1-.64.64A.64.64,0,0,1,579.93,157.9Zm-67,34.22a1.49,1.49,0,1,0,1.49,1.49A1.49,1.49,0,0,0,513,192.12Zm0,2.13a.64.64,0,1,1,.64-.64A.64.64,0,0,1,513,194.25Zm-6.45-2.13a1.49,1.49,0,1,0,1.49,1.49A1.49,1.49,0,0,0,506.51,192.12Zm0,2.13a.64.64,0,1,1,.64-.64A.64.64,0,0,1,506.51,194.25Zm9.68,4.13a1.49,1.49,0,1,0,1.49,1.49A1.49,1.49,0,0,0,516.19,198.38Zm0,2.13a.64.64,0,1,1,.64-.64A.64.64,0,0,1,516.19,200.51Zm-6.45-2.13a1.49,1.49,0,1,0,1.49,1.49A1.49,1.49,0,0,0,509.74,198.38Zm0,2.13a.64.64,0,1,1,.64-.64A.64.64,0,0,1,509.74,200.51Zm-3.23-17.61a1.49,1.49,0,1,0,1.49,1.49A1.49,1.49,0,0,0,506.51,182.89Zm0,2.13a.64.64,0,1,1,.64-.64A.64.64,0,0,1,506.51,185Zm12.91,7.1a1.49,1.49,0,1,0,1.49,1.49A1.49,1.49,0,0,0,519.42,192.12Zm0,2.13a.64.64,0,1,1,.64-.64A.64.64,0,0,1,519.42,194.25Zm-53.1-74.46a1.49,1.49,0,1,0,1.49,1.49A1.49,1.49,0,0,0,466.32,119.79Zm0,2.13a.64.64,0,1,1,.64-.64A.64.64,0,0,1,466.32,121.92ZM436.86,93.33a1.49,1.49,0,1,0,1.49,1.49A1.49,1.49,0,0,0,436.86,93.33Zm0,2.13a.64.64,0,1,1,.64-.64A.64.64,0,0,1,436.86,95.46Zm9.59,7.91a1.49,1.49,0,1,0,1.49,1.49A1.49,1.49,0,0,0,446.45,103.37Zm0,2.13a.64.64,0,1,1,.64-.64A.64.64,0,0,1,446.45,105.5Zm66.91,23.85,0-.42v-.42h-22.1v5.16h22.1v-.85h-20v-2Zm-20.23.64-.55-.64h9.19Zm-1.05,2.83v-2.74l.44.51v2.23Zm-44.56-15.08a3.54,3.54,0,1,0,3.54,3.54A3.55,3.55,0,0,0,447.51,117.74Zm-2.69,3.54a2.69,2.69,0,0,1,2.27-2.65v4.72h-1.28A2.68,2.68,0,0,1,444.82,121.28Zm4.39,2.07h-1.28v-4.72a2.67,2.67,0,0,1,1.28,4.72Zm-1.7-7.31a5.23,5.23,0,0,0-5.2,4.82h-2.9v.85h2.9a5.22,5.22,0,0,0,10.4,0h2.9v-.85h-2.9A5.23,5.23,0,0,0,447.51,116Zm0,9.64a4.39,4.39,0,1,1,4.39-4.39A4.4,4.4,0,0,1,447.51,125.67Zm-29.74,54.88a7.87,7.87,0,0,0-.33-9.39c.62-.32,1.25-.63,1.87-.92.38-.18-.25-.31-.4-.3-.76.08-1.53.2-2.28.33a8,8,0,0,0-5.47-2.19,8,8,0,0,0-7.83,6.32c-1.2.52-2.38,1.07-3.54,1.66-.15.08-.15.18,0,.25,1.18.61,2.38,1.16,3.6,1.68a8,8,0,0,0,13.07,4.06c1.07.21,2.14.38,3.22.51.08,0,.74-.08.46-.26A23.45,23.45,0,0,1,417.78,180.55Zm-.16-7.53c.07.14.14.29.2.43s.12.32.17.48a7.13,7.13,0,0,1,.21.79c0,.13,0,.26.06.4s.05.48.06.72c0,.08,0,.17,0,.25a7.07,7.07,0,0,1-1.19,3.9,21.88,21.88,0,0,1-2.41-2.56,10.72,10.72,0,0,1-1.42-2.22c-.17-.38-.42-1-.12-1.38a21.65,21.65,0,0,1,3.5-2.27A7.21,7.21,0,0,1,417.62,173Zm-6.45-4.08a7.1,7.1,0,0,1,4.41,1.54,61.73,61.73,0,0,0-6.28,1.71q-2.49.8-4.92,1.79A7.16,7.16,0,0,1,411.17,168.94Zm0,14.31a7.15,7.15,0,0,1-6.74-4.82c1.68.68,3.4,1.29,5.12,1.84,1.91.61,3.86,1.15,5.83,1.57A7.09,7.09,0,0,1,411.17,183.25Zm-1-3.38a58.76,58.76,0,0,1-9.13-3.66,59.19,59.19,0,0,1,8.64-3.52,48.91,48.91,0,0,1,7.65-1.93,25.48,25.48,0,0,0-5,3l0,0h0c-.77.85.78,2.76,1.24,3.37a20.81,20.81,0,0,0,4.88,4.6A53.27,53.27,0,0,1,410.19,179.86ZM443.43,160h4.25a1.49,1.49,0,1,0,0-3h-4.25a1.49,1.49,0,1,0,0,3Zm0-2.13h4.25a.64.64,0,0,1,0,1.28h-4.25a.64.64,0,0,1,0-1.28Zm-10,2.13h4.25a1.49,1.49,0,1,0,0-3h-4.25a1.49,1.49,0,1,0,0,3Zm0-2.13h4.25a.64.64,0,0,1,0,1.28h-4.25a.64.64,0,0,1,0-1.28Zm-10,2.13h4.25a1.49,1.49,0,1,0,0-3h-4.25a1.49,1.49,0,1,0,0,3Zm0-2.13h4.25a.64.64,0,0,1,0,1.28h-4.25a.64.64,0,0,1,0-1.28Zm14.28,34.58h-4.25a1.49,1.49,0,1,0,0,3h4.25a1.49,1.49,0,1,0,0-3Zm0,2.13h-4.25a.64.64,0,0,1,0-1.28h4.25a.64.64,0,0,1,0,1.28Zm-10-2.13h-4.25a1.49,1.49,0,1,0,0,3h4.25a1.49,1.49,0,1,0,0-3Zm0,2.13h-4.25a.64.64,0,0,1,0-1.28h4.25a.64.64,0,0,1,0,1.28Zm122.25-23.86h4.25a1.49,1.49,0,1,0,0-3h-4.25a1.49,1.49,0,1,0,0,3Zm0-2.13h4.25a.64.64,0,0,1,0,1.28h-4.25a.64.64,0,0,1,0-1.28Zm42-8.59h4.25a1.49,1.49,0,1,0,0-3h-4.25a1.49,1.49,0,1,0,0,3Zm0-2.13h4.25a.64.64,0,0,1,0,1.28h-4.25a.64.64,0,0,1,0-1.28ZM602,160h4.25a1.49,1.49,0,1,0,0-3H602a1.49,1.49,0,1,0,0,3Zm0-2.13h4.25a.64.64,0,0,1,0,1.28H602a.64.64,0,0,1,0-1.28Zm-96.79,7.52a3.54,3.54,0,1,0,3.54,3.54A3.55,3.55,0,0,0,505.23,165.42ZM502.53,169a2.69,2.69,0,0,1,2.27-2.65V171h-1.28A2.68,2.68,0,0,1,502.53,169Zm4.4,2.07h-1.28v-4.72a2.67,2.67,0,0,1,1.28,4.72Zm-61.75,28.58h-2.84a1.14,1.14,0,0,0-1.14,1.14v6.67a1.14,1.14,0,0,0,1.14,1.14h2.84a1.14,1.14,0,0,0,1.14-1.14v-6.67A1.14,1.14,0,0,0,445.17,199.61Zm.29,7.82a.29.29,0,0,1-.29.29h-2.84a.29.29,0,0,1-.29-.29v-6.67a.29.29,0,0,1,.29-.29h2.84a.29.29,0,0,1,.29.29Zm5.65-7.82h-2.84a1.14,1.14,0,0,0-1.14,1.14v6.67a1.14,1.14,0,0,0,1.14,1.14h2.84a1.14,1.14,0,0,0,1.14-1.14v-6.67A1.14,1.14,0,0,0,451.12,199.61Zm.29,7.82a.29.29,0,0,1-.29.29h-2.84a.29.29,0,0,1-.29-.29v-6.67a.29.29,0,0,1,.29-.29h2.84a.29.29,0,0,1,.29.29Zm5.65-7.82h-2.84a1.14,1.14,0,0,0-1.14,1.14v6.67a1.14,1.14,0,0,0,1.14,1.14h2.84a1.14,1.14,0,0,0,1.14-1.14v-6.67A1.14,1.14,0,0,0,457.07,199.61Zm.29,7.82a.29.29,0,0,1-.29.29h-2.84a.29.29,0,0,1-.29-.29v-6.67a.29.29,0,0,1,.29-.29h2.84a.29.29,0,0,1,.29.29Zm5.65-7.82h-2.84a1.14,1.14,0,0,0-1.14,1.14v6.67a1.14,1.14,0,0,0,1.14,1.14H463a1.14,1.14,0,0,0,1.14-1.14v-6.67A1.14,1.14,0,0,0,463,199.61Zm.29,7.82a.29.29,0,0,1-.29.29h-2.84a.29.29,0,0,1-.29-.29v-6.67a.29.29,0,0,1,.29-.29H463a.29.29,0,0,1,.29.29Zm5.65-7.82h-2.84a1.14,1.14,0,0,0-1.14,1.14v6.67a1.14,1.14,0,0,0,1.14,1.14H469a1.14,1.14,0,0,0,1.14-1.14v-6.67A1.14,1.14,0,0,0,469,199.61Zm.29,7.82a.29.29,0,0,1-.29.29h-2.84a.29.29,0,0,1-.29-.29v-6.67a.29.29,0,0,1,.29-.29H469a.29.29,0,0,1,.29.29Zm5.65-7.82h-2.84a1.14,1.14,0,0,0-1.14,1.14v6.67a1.14,1.14,0,0,0,1.14,1.14h2.84a1.14,1.14,0,0,0,1.14-1.14v-6.67A1.14,1.14,0,0,0,474.91,199.61Zm.29,7.82a.29.29,0,0,1-.29.29h-2.84a.29.29,0,0,1-.29-.29v-6.67a.29.29,0,0,1,.29-.29h2.84a.29.29,0,0,1,.29.29Zm-63.73-70.77v8l5.19-1.3v-8Zm3.88,6-3,.87v-2.25h3Zm0-3.62-3,.76v-2.48h3Zm275.5,8.85c0,.31-.63.57-1.42.57s-1.42-.25-1.42-.57.63-.57,1.42-.57S690.86,147.57,690.86,147.89ZM532,40.85c1.21,2.32,3.74,3.66,7,3.66h13.49c4.06,0,6.7-.83,7.87-2.48.85-1.2.91-2.76.2-4.77l-14-15.33H527.6a3.6,3.6,0,0,0-3,1.45c-.57.94-.46,2.17.31,3.66Zm20.45,2.81a36.68,36.68,0,0,1-7.67-.82h13.1A14.3,14.3,0,0,1,552.49,43.66Zm7.17-2.12a3.1,3.1,0,0,1-.4.45H541.85v.08c-.89-.27-1.73-.58-2.53-.9h20.56A2.76,2.76,0,0,1,559.66,41.53Zm-23.71-2h24.23a3.94,3.94,0,0,1,0,.82H537.44Q536.65,39.92,536,39.49Zm3.35-15h8.4l.75.82H537.86A15.23,15.23,0,0,1,539.3,24.45Zm-2.61,1.67h12.55l.75.82H535.74C536,26.66,536.36,26.39,536.69,26.12Zm-1.77,1.67h15.85l.75.82H534.24C534.45,28.34,534.68,28.06,534.92,27.79Zm-1.28,1.67H552.3l.75.82H533.14C533.29,30,533.46,29.74,533.64,29.47Zm-.92,1.67h21.12l.75.82H532.38C532.48,31.69,532.59,31.41,532.72,31.14Zm-.6,1.67h23.25l.75.82H532A8.19,8.19,0,0,1,532.12,32.81Zm24.79,1.67.75.82H532a2.71,2.71,0,0,1-.1-.69s0-.09,0-.13Zm1.53,1.67.75.82H532.88a5.62,5.62,0,0,1-.56-.82Zm1.41,1.67a8.18,8.18,0,0,1,.22.82H534.68a12,12,0,0,1-1-.82ZM546.92,23.6h-5.6a15.64,15.64,0,0,1,4.84-.82Zm-21.63.22a2.82,2.82,0,0,1,2.31-1h13.52c-6.29,2.1-10.1,7.71-10.1,11.83,0,2.57,2.56,4.81,6.17,6.51v0h.08A36.15,36.15,0,0,0,545,43.66h-6c-2.89,0-5.15-1.17-6.2-3.2l-7.16-13.81C525,25.44,524.89,24.49,525.29,23.83ZM959,9.59a2.64,2.64,0,0,0-5,0H898.9A29.58,29.58,0,0,1,890,8c-5.38-1.53-12.75-3.62-31.11-3.62H574.84V3.58h-2.52c-.49-1.16-2.87-2.2-5.29-2.2s-4.8,1-5.29,2.2h-2.52v.84H502.38a15,15,0,0,0-7.27,1.75,4.92,4.92,0,0,1-1.93.67h-9c-4,0-6.72,4.35-6.72,6.71v2.33h-2v4h2l.75,1.35h0l17.62,31.68c2,3.55,6.08,3.55,11.24,3.53H594.8a7.11,7.11,0,0,0,1.45,4.47c2.28,3.11,6.92,5,12.4,5h19.13l-91.23,61.8-23.64-3.14-13.4-10h-1.46l-4.74-4.1h1.52L448.3,70.22l11.49-4.42a2.27,2.27,0,0,0,1.35-1.41l5.92-17.73a1.9,1.9,0,0,0,0-1.22l-.81-2.32-.41-1H411c-.77-2-3.16-2.89-5.41-2.89-2.77,0-4.76,1.1-5.42,2.89H377.27v4.35c-21.39-1.86-61.47-7.38-86.53-16a1.42,1.42,0,0,0-1,.05l-5-5a1.4,1.4,0,0,0-.35-1.68l-6-5a8.4,8.4,0,0,0-5.32-1.9H259.11V6.21h-2.59a1.91,1.91,0,0,0-3.78,0H239.43a4.76,4.76,0,0,0-2.64-1.28c-1.54-3.07-6-4.93-12-4.93C219,0,214.63,1.8,212.9,4.85a5,5,0,0,0-4,2.67,12,12,0,0,0-7.85,5.81l-2.31.2a2,2,0,0,0-1.09.44l-11,9a1.4,1.4,0,0,0-.48,1.29l-1.56,1.32a1.35,1.35,0,0,1-.87.32,4.11,4.11,0,0,0-2.36.73A11.73,11.73,0,0,0,178.92,29a1.33,1.33,0,0,1-1.06.52h0l-18-.12a4.05,4.05,0,0,0-1.36.22,266.87,266.87,0,0,1-29.11,7.73,1.07,1.07,0,0,0-.55-.51,1.39,1.39,0,0,0-1.28-.78c-.52.11-.83.78-.87,1.22a1.06,1.06,0,0,0-.3.7c-27.79,5.76-57.56,9.18-66,9.18H9.19A1.48,1.48,0,0,0,8,46.12a1.48,1.48,0,0,0-1.21,1.07H2.83A2.83,2.83,0,0,0,.11,50.8L5.54,69.67a3.42,3.42,0,0,0,3.27,2.46h2a1.47,1.47,0,0,0,1.2,1,1.47,1.47,0,0,0,1.2-1H119.05c14.94,1.59,36.16,8.19,55.43,17.25a32.47,32.47,0,0,0,9,3.72l1.49,3.2.63.18A165.77,165.77,0,0,0,202,100.24l6.16,4.34a1.74,1.74,0,0,0,1,.32h1.13a24,24,0,0,0,29,0h1.13a1.72,1.72,0,0,0,1-.32l6.18-4.36L258,98l.92-2.6a50.4,50.4,0,0,0,16.25-6,233.13,233.13,0,0,1,28-11l22,1.33.35-1.42h2l57,33v2.88a28,28,0,0,0-6.17,2.18,1.67,1.67,0,0,0,.39,3.19l4.76.79v.64h-1.68v4.25h1.68v1.56l-2,.84-.22.11a1.5,1.5,0,0,0-.63,1.67l.37,1.07h3.47v8.66l-21.31,3.13v1.4H361v2.32l-4,.48v57.47l4,.48v2.32h2.06v3L381.45,214a7.92,7.92,0,0,0,5.21,5.76v1.89l1.11.25c5.34,1.2,9.61,2,13.06,2.53A129,129,0,0,0,422.26,226a488,488,0,0,0,53.31,3c2.08,0,4.15,0,6.22-.05a1.23,1.23,0,0,0,2.46,0v0q10.52-.21,20.75-.91c7.47-.52,14.85-1.24,22-1.94l8.31-.8c20-3.08,45.61-6,68.57-7.74l1.19-.09.11-1.19c.74-7.77,11.94-15.65,30.71-21.63a212.08,212.08,0,0,1,38.19-7.84l.62,1.2H684l2.66-1.89v-.57c9.12-.73,18.63-1.11,28.39-1.11h1.11l2-8a1.83,1.83,0,0,0-1.78-2.28h-5.06L698.28,155.7a6.61,6.61,0,0,0,2.66-4,1.9,1.9,0,0,0,0-.93c-.75-2.86-4.09-5.63-6.16-6.35l-.2-.07h-.22l-.39,0a3.05,3.05,0,0,0-2.91-1.8,3,3,0,0,0-3.1,1.56c-14.13-.62-29.81-1.75-45.76-3.3-9.73-.95-23.19-2.5-42.09-4.86l143-70h.14c7.2,0,12.48-4.07,12.94-8a12.85,12.85,0,0,0,0-1.44h54.84c14.92,0,21-2.38,32.14-7.32h48.34c9.85,0,34.44,6,40.72,8.59l.91.38,14.6-15.56h6.11L963.78,32h-6.11l10.17-10.84V18.55l8.41-9ZM567,2.23a6.51,6.51,0,0,1,4.25,1.35h-8.5A6.51,6.51,0,0,1,567,2.23ZM964.59,20.47h-1.86l.82-.87H965V20ZM924.73,52.36h9.94l-.82.88h-6C926.85,52.95,925.81,52.65,924.73,52.36Zm-3.2-.85L918,50.63h18.28l-.82.88Zm-7.17-1.72c-1.34-.3-2.7-.59-4-.87h27.6l-.82.87ZM906,48.06c-1.77-.33-3.51-.62-5.16-.87h38.7l-.82.88Zm29.35-1.72.82-.87h5l-.82.88ZM937,44.61l.95-1v.14h4.86l-.82.88Zm1.62-1.72.82-.87h5l-.82.87Zm1.62-1.72.82-.87h3.08l0,0,0,0H946l-.82.88Zm3.57-1.72H853.29l4.06-4.32h90.47Zm1.17,0,.82-.87h8l-.82.88Zm1.62-1.72.82-.87h8l-.82.87ZM948.16,36l.82-.87h8l-.82.88Zm1.62-1.72.82-.87h1.87l-.82.88Zm2.44-2.6h1.87l-.82.88H951.4Zm2.66-.85H953l.82-.87h1.87Zm-.25-1.72.82-.87h1.87l-.82.88Zm1.62-1.72.82-.87h1.86l-.82.88Zm1.62-1.72.82-.87h1.86l-.82.87Zm1.62-1.72.82-.87h1.86l-.82.88Zm1.62-1.72.82-.87h1.86l-.82.88Zm3.24-3.45L965,18v.71ZM956.5,8.67a1.94,1.94,0,0,1,1.58.92h-3.17A1.94,1.94,0,0,1,956.5,8.67Zm12.61,3.75L948.62,34.26H857l-5.65,6h88.51l-5.67,6H892.88c-.47,0-.93,0-1.35,0H842.88c-7-2.63-20.25-2.64-35.32-2.64H596.68l-1.58-1.72H799.4c18.48,0,33-5.11,33-11.63,0-4.39-5-7.92-13.07-9.9h0A70,70,0,0,0,803,18.67H573.75l-1.32-1.43H842.19c7.64,0,44.3-.26,53.47-5a26.21,26.21,0,0,0,3.23.2ZM521.54,20.55a1.38,1.38,0,0,1,1.19-.65h7.79V16.74h40.29l4,4.35v.16H575l22.35,24.36h-58.6c-3.53,0-5.53-1.09-6.92-3.76l-9.93-19.14A2.19,2.19,0,0,1,521.54,20.55ZM493,15.89c.05-.79.29-1.94,1.23-1.94h49.3a5.81,5.81,0,0,1,4.45,1.94H493Zm329.23,6.23H576.92l-.8-.87H819.18Q820.78,21.65,822.18,22.12ZM593.52,40.21H811.83a86.75,86.75,0,0,1-12.44.88H594.32Zm223-.85H592.74l-.8-.87H820C818.92,38.81,817.75,39.1,816.53,39.36Zm6.15-1.72H591.15l-.8-.87H824.9C824.21,37.07,823.46,37.36,822.68,37.64Zm4-1.72H589.57l-.8-.87H828.11Q827.44,35.49,826.65,35.92Zm2.6-1.72H588l-.8-.87h243A9.07,9.07,0,0,1,829.25,34.19Zm1.57-1.72H586.41l-.8-.87H831.26A4.67,4.67,0,0,1,830.82,32.47Zm-246-1.72-.8-.87H831.48c0,.15,0,.29,0,.44a3.5,3.5,0,0,1,0,.44ZM583.24,29l-.8-.87H831a5.3,5.3,0,0,1,.35.88Zm-1.58-1.72-.8-.87H829.73a8.17,8.17,0,0,1,.72.87Zm-1.58-1.72-.8-.87H827.65a13.64,13.64,0,0,1,1.18.88Zm-1.58-1.72-.8-.87H824.41c.65.28,1.25.57,1.82.88Zm-3.16-3.45-.8-.87H803a76.24,76.24,0,0,1,12,.88ZM894.15,12c-10.74,4.26-47.45,4.39-52,4.39H571.66l-.46-.5H549.1l-.2-.21a6.88,6.88,0,0,0-5.43-2.58h-49.3c-1.21,0-2,1-2.07,2.79h-6.26a5.13,5.13,0,0,1-.2-4.29,3.73,3.73,0,0,1,2.91-1.91H492c.88,0,1,.13,1.1.31.37.5.84.89,3.28.89h88.62l1.11,1H843.6c11.56,0,32.37,0,43.39-1.77l2.25.63C890.91,11.25,892.47,11.69,894.15,12ZM482.34,15.89a4.62,4.62,0,0,1,0-3.88A4,4,0,0,1,484,10.28a4.32,4.32,0,0,0-.78,1.09,5.67,5.67,0,0,0-.07,4.51Zm1.78,0a4.89,4.89,0,0,1-.1-4.13,3.58,3.58,0,0,1,1.65-1.58,4,4,0,0,0-.79,1,5.84,5.84,0,0,0,0,4.67ZM584.13,9H843.6c10.83,0,22.73-.09,30.8-1A77.1,77.1,0,0,1,884.83,9.6c-11.31,1.46-30.37,1.46-41.23,1.46H586.39ZM869.31,7.53c-7.53.52-17,.58-25.71.58H583.23l-.91-.85H858.9C862.86,7.26,866.3,7.36,869.31,7.53Zm-373,1.2a12.19,12.19,0,0,1,6-1.46h79l-.15.16L584,10H496.33c-1.8,0-2.27-.21-2.48-.41A8.6,8.6,0,0,0,496.35,8.73Zm-16.1,4.83A5.27,5.27,0,0,1,483,9.93a4.79,4.79,0,0,0-1.43,1.7,5.47,5.47,0,0,0-.19,4.26h-1.16Zm-4,3.18h53.41v2.31H476.27Zm5.16,3.16,10,19.23L480.71,19.9Zm1,0h.88l16.35,31.53a3.76,3.76,0,0,1-.62.51ZM500.5,50a4,4,0,0,1-.31.7l-16-30.78h.88l15.46,29.81C500.55,49.8,500.53,49.9,500.5,50Zm.25-1.77L486.07,19.9H487l12.8,24.68A8.37,8.37,0,0,1,500.75,48.21Zm.95,5.08a.69.69,0,0,1-.11-.6.82.82,0,0,1,.82-.41,1.78,1.78,0,0,1,.63.12,1.61,1.61,0,0,1,.77.59.69.69,0,0,1,.11.59,20.85,20.85,0,0,1-2.11-.17A1.35,1.35,0,0,1,501.7,53.29Zm5.37.33-2.28,0a1.58,1.58,0,0,0-.26-1.07,2.43,2.43,0,0,0-1.18-.92,1.89,1.89,0,0,0-2.55.78,1.38,1.38,0,0,0,0,.82,4.9,4.9,0,0,1-1.35-.53,4.6,4.6,0,0,0,1.9-2.42,8,8,0,0,0-.8-6.06L487.91,19.9h5.79l10.87,21c.8,1.53,2.66,5.12,6.39,5.12H524.2v7.63H507.06ZM637,63.06H608.65a16.28,16.28,0,0,1-7.35-1.55h0a7.78,7.78,0,0,1-2.75-2.25,4.8,4.8,0,0,1-.69-1.32,3.74,3.74,0,0,1-.18-1.1c0-3.44,4.78-6.23,10.66-6.23H742.79c4.07,0,7.6,1.34,9.4,3.3l1.05,1.72c0,.11.06.22.09.33a10.26,10.26,0,0,1,0,1.62,2.64,2.64,0,0,1-.08.37s0,.08,0,.13l0,.09a4.29,4.29,0,0,1-.22.49l-.07.12c-.07.12-.15.24-.23.36l-.21.28-.11.13a7.76,7.76,0,0,1-1.43,1.3,14.53,14.53,0,0,1-8,2.22m-28.66,11.2h1.26l-1.26.62Zm3-.85h-3v-.87h4.78Zm3.52-1.72h-6.52v-.87h8.3ZM724.33,70h-10v-.87h11.82Zm3.52-1.72H714.29v-.87h15.34Zm3.52-1.72H714.29v-.87h18.86Zm3.52-1.72h-20.6v-.87h22.38Zm-151.71,78.3c-.05.79.28,1.77,1.84,2.5-30.34,1.77-47.46-.54-61.12-8.32a26.18,26.18,0,0,0,4.16.34A32,32,0,0,0,542.74,134c7.64,3.13,31.07,3.14,46.63,3.14h1.36C586.7,138.44,583.32,140.89,583.18,143.09Zm1.76-1.66,0,3.15a1.61,1.61,0,0,1-1-1.44A3,3,0,0,1,584.94,141.43Zm-46.2-11.77.53-.39h0l3-2v6.08a30.67,30.67,0,0,1-18.48,3.07A36.07,36.07,0,0,0,538.74,129.66Zm4.89,3.8L646.29,63.91h6.12L548.14,134.56A28.54,28.54,0,0,1,543.63,133.46Zm92.12-69.55h9L543.13,132.78v-6.12ZM510.21,126.07c-39.13-.53-82.57.61-92,3.78-.9-2.94-7.26-3.45-20.54-3.42H395.6c-2,0-3.9,0-5.74.06v-7.11c14.6-2.86,42.19-3.84,64.82-4.36H470c0,.32,0,.65,0,1v1.42h28.55Zm156.7,25.3h15.82v6L666.91,183.9Zm-.85,20.82H614.91V151.37h51.15Zm-52,0H574.51V151.37h39.54Zm-39.54,24V173h39.54v23.15Zm-57.06,18H457a319.48,319.48,0,0,1-38.64-2V210A321.38,321.38,0,0,0,457,212h60.44Zm-25,11.64-.52,0a1.08,1.08,0,0,0,.23-.65c0-.75-.81-1.35-1.84-1.35s-1.84.59-1.84,1.35a1.11,1.11,0,0,0,.32.76l-.6,0V223.5h4.25Zm-3.12-.63c0-.2.39-.5,1-.5s1,.29,1,.5-.39.5-1,.5S489.36,225.4,489.36,225.2Zm-2-2.55V226q-4.33.12-8.71.15v-3.5h-6v3.5q-9.72-.06-19.63-.54V215l3.93,0h35.47v7.62Zm-11.69,3c-.61,0-1-.29-1-.5s.39-.5,1-.5,1,.29,1,.5S476.29,225.69,475.68,225.69Zm1.31.46a1.19,1.19,0,0,0,.54-1c0-.75-.81-1.35-1.84-1.35s-1.84.59-1.84,1.35a1.19,1.19,0,0,0,.55,1h-.83V223.5h4.25v2.65Zm-54.67-5.27,0-.42q-2-.1-4-.31V213a303.89,303.89,0,0,0,33.86,2v10.56q-14.56-.73-29.48-2.36v-2.32Zm-25.43-8.31-4-2.67V185.83q1.94.26,4,.49Zm-16-1.56-14.6-3.42v-.38l21.28,2.66v.69h3.54v9.23l-1.62-.35V212.8Zm2.42-62.15v-.91l1.29-.11v-1.28l3-.25v3.48l-3,.25v-1.29Zm8.59,36v-17.5a240.06,240.06,0,0,1,29.13-2v21.55A239.86,239.86,0,0,1,391.93,184.84Zm-3.48,24.86V185.38l2,.17V209.7Zm-4.21-40.41c1.34,0,2.23,1.48,2.41,2.48a2.6,2.6,0,0,1-.39,2.08,2.51,2.51,0,0,1-2,.73h-1.65v-1.14h-2.93v5.29h2.93V177.6h1.65a2.51,2.51,0,0,1,2,.73,2.6,2.6,0,0,1,.39,2.08c-.18,1-1.07,2.48-2.41,2.48H384c-1.34-.15-4.87-1.5-4.87-6.79s3.53-6.64,4.87-6.79Zm-2.51,5.3h-.8v3h.8v.29h-1.23V174.3h1.23Zm-3.46,1.5c0,3.49,1.46,5.54,3,6.63l-15-.87V170.33l15-.87C379.74,170.55,378.28,172.61,378.28,176.09Zm12.8-8.66v17.31l-1.83-.16v-17Zm-7.74,36.8v-.91l1.29.11v-1.28l3,.25v3.48l-3-.25v-1.28Zm4.26-2.68-5.11-.44v5.18l5.11.44V209l-21.28-2.66V183.49l21.28,1.82Zm28-71.41a77.71,77.71,0,0,0-14.16,2.48v-3.47C406.16,129.21,412,129.38,415.61,130.15Zm-15,2.73c-1.2.35-2.36.73-3.43,1.13l-.28.1v1l-4.58,3h-1.68v-5.44l-3.4-1.2v-2.12c3.34-.17,6.85-.26,10.48-.26h2.88Zm-7.73,33.48V138.83l4-2.67v29.71Q394.81,166.1,392.87,166.36ZM391.28,139H392v27.45l-.56.08h-.17Zm6.46,26.75V134.71a72.63,72.63,0,0,1,19.77-3.85v33.67C410.51,164.72,403.75,165.15,397.74,165.78Zm0-37.47c-3.63,0-7.14.09-10.48.25v-.31l2.16-.89c2-.08,4-.08,6.21-.08h2.12c11.33,0,18.06.39,19.5,2.41C413.25,128.42,405.13,128.31,397.72,128.31Zm-9.27,11.37h2v27l-2,.17Zm-.05,28v16.86l-19.29-1.65,15.1.88h0c1.85,0,3-1.86,3.25-3.18a3,3,0,0,0-3.25-3.82h-2.44v-1.31h2.44a3,3,0,0,0,3.25-3.82c-.24-1.32-1.4-3.18-3.25-3.18h0l-15.17.88Zm2.88,42V185.62h.17l.56.08v24Zm6.46-23.29c6,.63,12.77,1.06,19.77,1.24v32.4c-8.14-.93-15.3-3.09-19.77-6Zm20.63,1.26,3.11.06h.43v-8l30.57-.12v16.53H418.37ZM421.91,173h30.57v2l-30.57-.12Zm83.32.32a4.39,4.39,0,1,1,4.39-4.39A4.4,4.4,0,0,1,505.23,173.35ZM502,173a5.13,5.13,0,0,0,6.51,0h24.78v2.37l-39.55-.16V173Zm-8.25,3.36,39.55-.16v2.59l-39.55-.15Zm-.85,2.27-39.54-.15v-2l39.54-.16Zm0-3.43-39.54-.16v-2h39.54Zm-71,1.46,30.57-.13v1.94l-30.57-.12Zm31.42,3,39.54-.15v16.69H453.33Zm40.4-.16,39.55-.15v16.85H493.72Zm40.4-.16,9.7,0v-.44l-9.7,0v-2.6l27.41-.11v-.59l-27.41-.11V173h39.55v23.15H534.12Zm39.55-7.15H534.12V151.37h39.55Zm-40.4,0H509.33a5.19,5.19,0,0,0,1.1-2.8h2.9v-.85h-2.9a5.22,5.22,0,0,0-10.4,0h-2.9v.85H500a5.19,5.19,0,0,0,1.1,2.8h-7.4V151.37h39.55Zm-40.4,0H453.33V151.37h39.54Zm-40.4,0H421.91v-7.73h-.43l-3.11.06V151.37h34.11Zm1.75-58h-.42c-12.17,0-26.32,0-39.23.27v-3.08h56a10.8,10.8,0,0,0-.52,2.81H454.22Zm-66.9-2.81h13.62v3.49c-5.1.22-9.73.5-13.62.88Zm4.76-33.11h8.86v.85h-8.86Zm-.85.85h-50l-2.59,2.4-5.63-3.25h58.16ZM265.47,83.41h.06v-.05a67.72,67.72,0,0,1,11.81-7.11h4c-5.25,2.72-9.5,5.49-11.36,7.43h-4.84ZM149.23,76.25h4.43a88,88,0,0,1,14,6.31H166.1C160.43,80.2,154.76,78.07,149.23,76.25Zm20.14,6.31a81.48,81.48,0,0,0-13.26-6.31h3.56a60.65,60.65,0,0,1,12,6.31ZM289.8,75.4H279.13a74.64,74.64,0,0,1,8.25-3.28h19.16c-3.44.88-7.1,2-10.73,3.28Zm-12.63,0h-24a35.59,35.59,0,0,1,4.14-3.28h27.49C282.35,73,279.74,74.16,277.17,75.4Zm-25.22,0H225.23V73.05a1.68,1.68,0,0,0,.77-.92h29.82A32.9,32.9,0,0,0,251.95,75.4Zm-22.33,1.7a2.45,2.45,0,0,0-3.43,0h-2.77a2.45,2.45,0,0,0-3.43,0h-1v-.85h11.71v.85Zm-2.7.43a1.42,1.42,0,0,1,1-.28,1.59,1.59,0,0,1,1,.27.46.46,0,0,1-.18.13,4,4,0,0,0-1.63,0A.57.57,0,0,1,226.92,77.54Zm-6.21,0a1.31,1.31,0,0,1,1-.3,1.41,1.41,0,0,1,1,.28.57.57,0,0,1-.17.11,3.5,3.5,0,0,0-.82-.09,3.46,3.46,0,0,0-.83.09A.67.67,0,0,1,220.71,77.56Zm2.9-5.43a1.68,1.68,0,0,0,.77.92V75.4H197.66a32.91,32.91,0,0,0-3.88-3.28Zm-31.3,0a35.6,35.6,0,0,1,4.14,3.28h-24c-2.57-1.25-5.18-2.37-7.62-3.28Zm-30.07,0a74.64,74.64,0,0,1,8.25,3.28H153.8c-3.63-1.29-7.29-2.39-10.73-3.28ZM162,76.25h4.44c5.24,2.6,9.77,5.42,12,7.43h-4C173.19,82.32,167.32,78.55,162,76.25Zm17.68,7.43c-1.87-1.95-6.11-4.72-11.36-7.43h4a65.59,65.59,0,0,1,12.22,7.43Zm-5.5-7.43h23.16a22,22,0,0,1,1.74,2,32.1,32.1,0,0,1,2.71,4.32H184.43A66.19,66.19,0,0,0,174.15,76.25Zm28.58,6.31a34.32,34.32,0,0,0-3-4.83c-.38-.5-.8-1-1.25-1.48H218.1V78H220a1.12,1.12,0,0,0,.33.35,1.44,1.44,0,0,0,2.78,0,1.12,1.12,0,0,0,.33-.35h1v4.61ZM225.23,78h1a1.12,1.12,0,0,0,.33.35,1.44,1.44,0,0,0,2.78,0,1.12,1.12,0,0,0,.33-.35h1.46l.43,0V76.25h19.63c-.45.49-.87,1-1.25,1.48a34.29,34.29,0,0,0-3,4.83H225.23Zm25.33.29a22,22,0,0,1,1.74-2h23.16a66.19,66.19,0,0,0-10.29,6.31H247.85A32.05,32.05,0,0,1,250.56,78.25Zm32.64-2h4.44c-5.35,2.3-11.22,6.07-12.48,7.43h-4C273.43,81.67,278,78.86,283.2,76.25Zm6.74,0h3.56a81.51,81.51,0,0,0-13.27,6.31h-2.29A60.65,60.65,0,0,1,289.94,76.25Zm6,0h4.43c-5.53,1.82-11.2,3.94-16.87,6.31h-1.59A88,88,0,0,1,295.95,76.25ZM303,75.4h-4.61a121.41,121.41,0,0,1,11.78-3.28h4.52C310.95,73,307,74.14,303,75.4ZM74.33,69.29l-1.06-2.13H376.34l-1.06,2.13Zm72.23-33.13h11.32c-2.62,1.47-7.76,3.09-14,4.65H126.68C133.54,39.4,140.28,37.84,146.56,36.16Zm43.51-11.37H280l.61.61-.37.35a.84.84,0,0,0,0,1.19l2.85,3c-.93-.27-1.88-.52-2.84-.74a51.61,51.61,0,0,0-10.61-1.12H186.14a4.14,4.14,0,0,0,.36-.26Zm90.71,1.58.38-.37,6.58,6.59-.5.49ZM319,40.81H305.7c-6.21-1.56-11.35-3.18-14-4.65h7.81C305.61,37.86,312.2,39.41,319,40.81ZM445,50l-.62,2.14h-54.8L388.48,50H445Zm10-3.51-2.56.68H411l.44-.68Zm-.72,32.6H440.89l.46-.85h11.89ZM215.72,54.69H219v9.92h-3.28Zm13.38,8.93h-8.6V61h8.6Zm0-5.46h-8.6V55.54h8.6Zm1.5-3.48h3.28v9.92H230.6Zm222.1,4h1.1l-.32,1Zm1.36-.85h-2l0,0h0l-.61-.8v0h2.91Zm.54-1.7h-3.05l.13-.85h3.19Zm.54-1.7h-3.33l.13-.85h3.46Zm.54-1.7h-3.6l.13-.85H456Zm.54-1.7h-3.87l.13-.85h4Zm.54-1.7h-4.15l.13-.85H457Zm.54-1.7h-3.22l3.51-.93Zm-6.7,9.19L445.31,59l2.37-8.22a2.8,2.8,0,0,0-.46-2.48A2.83,2.83,0,0,0,447,48h5Zm-215.2,2.43H442.3l-.24.85H235.39Zm207.16-.85H235.39V54.69H443.6ZM235.39,60.93H441.81l-1.06,3.69H235.39Zm210.4,7.37h-3.15l.25-.85h3.36Zm-29.39,3.83a92.71,92.71,0,0,1,14.06,5.27H414.56V72.13Zm23.85,6.38h-5.89q-.72-.43-1.51-.85h7.86Zm-8.1-.26c.54.28,1.06.57,1.55.85H414.56v-.85Zm7.64,1.11,0,0a2.54,2.54,0,0,1-1.88.93,2.39,2.39,0,0,1-1.4-.44l-.78-.52Zm1.38-2.55h-10q-.88-.43-1.81-.85h12.26Zm.92-1.7H427.43q-1-.43-2.09-.85h17.22Zm.92-1.7H423.07c-.81-.29-1.63-.58-2.44-.85h22.85Zm.92-1.7h-3.32a3.42,3.42,0,0,0,1-.85h2.78Zm.92-1.7h-2.74a3.31,3.31,0,0,0,.12-.33l.15-.52h2.93Zm1.85-3.4h-3.58l.23-.81.54-.22v.17h3.27Zm.92-1.7h-2.09l2.69-1.1Zm-4-.15L445,60.06l5.82-2.45,3.06,4,.29.39-5.12,2,1-1.92Zm10.77-3.84-.31-.41,4.42-14h.54Zm-77.14-8.77L376.22,50h11.31l1.07,2.14Zm-157-10.48h4.09v2.91H184.81a59.64,59.64,0,0,0,5.68-2.9ZM220,40a2.45,2.45,0,0,0,3.43,0h2.77a2.45,2.45,0,0,0,3.43,0h1v.85H219V40Zm2.7-.43a1.41,1.41,0,0,1-1,.28,1.59,1.59,0,0,1-1-.27.46.46,0,0,1,.18-.13,4,4,0,0,0,1.63,0A.57.57,0,0,1,222.69,39.52Zm6.21,0a1.31,1.31,0,0,1-1,.3,1.42,1.42,0,0,1-1-.28.57.57,0,0,1,.17-.11,3.5,3.5,0,0,0,.82.09,3.46,3.46,0,0,0,.83-.09A.68.68,0,0,1,228.9,39.5Zm68.43,5.06H266.94a62.74,62.74,0,0,1-6.09-2.9H287C290.23,42.68,293.75,43.66,297.33,44.56ZM290,41.66h15.54c4,1,8.51,2,13,2.9H300.93C297.19,43.67,293.44,42.69,290,41.66Zm-25.17,2.9H225.23V41.65h33.89A59.64,59.64,0,0,0,264.8,44.56Zm-82.13,0H152.28c3.58-.9,7.1-1.88,10.29-2.9h26.18A62.74,62.74,0,0,1,182.67,44.56Zm-2.15.85c-1.71.64-3.47,1.24-5.28,1.77H140.79c2.57-.53,5.28-1.12,8-1.77Zm2.32,0h41.55v.82a1.68,1.68,0,0,0-.78,1H178.07Q180.52,46.36,182.83,45.41ZM226,47.18a1.68,1.68,0,0,0-.78-1v-.82h41.55q2.3.95,4.76,1.77Zm48.36,0c-1.81-.53-3.57-1.13-5.28-1.77H300.8c2.74.65,5.45,1.24,8,1.77Zm38.85,0c-2.68-.5-5.6-1.1-8.6-1.77h18.25c3.48.66,6.89,1.25,10.06,1.77Zm25.16,0c-3.26-.48-7-1.08-10.83-1.77H345c4.38.66,8.65,1.25,12.72,1.77ZM323,44.56c-4.65-.89-9.38-1.87-13.76-2.9h14c5.43,1.06,10.93,2,16.32,2.9Zm-32.79-8.4c1.9,1.48,6.39,3.09,12.11,4.65H287.21c-4.8-1.53-8.8-3.13-11-4.65Zm-15.38,0c1.76,1.53,5.28,3.12,9.69,4.65H259.35A36.17,36.17,0,0,1,253,36.16Zm-23,0a33.46,33.46,0,0,0,5.94,4.65H231.51V39.1h-1.88a1.13,1.13,0,0,0-.33-.35,1.44,1.44,0,0,0-2.78,0,1.12,1.12,0,0,0-.33.35h-1V36.16Zm-27.4,2.94h-1a1.12,1.12,0,0,0-.33-.35,1.44,1.44,0,0,0-2.78,0,1.12,1.12,0,0,0-.33.35h-1.46l-.43,0v1.67H191.89a33.46,33.46,0,0,0,5.94-4.65h26.54Zm-34.12,1.71H165.13c4.41-1.53,7.93-3.12,9.69-4.65h21.79A36.17,36.17,0,0,1,190.25,40.81Zm-27.86,0H147.33c5.72-1.56,10.21-3.17,12.11-4.65h14C171.19,37.68,167.2,39.28,162.4,40.81Zm-22,.85c-4.38,1-9.11,2-13.76,2.9h-20.2c5.26-.87,10.65-1.84,16-2.9Zm3.68,0h15.54c-3.47,1-7.22,2-11,2.9H131.09C135.58,43.66,140,42.68,144.09,41.66Zm.89,3.75c-3,.67-5.92,1.27-8.6,1.77H116.68c3.16-.52,6.57-1.11,10.06-1.77ZM375.27,50l1.07,2.14H73.27L74.33,50ZM73.38,50l-1.06,2.13H61L62.08,50Zm370.71,3-.24.85H3.93L3.69,53Zm-229.87,1.7v3.69H5.24L4.18,54.69Zm0,4.54v.85H5.73l-.25-.85Zm0,1.7v3.69H7L6,60.93ZM7.28,65.46H440.51l-.25.85H7.53Zm65,1.7,1.06,2.13H62.08L61,67.17Zm305,0h11.31l-1.06,2.13H376.23Zm12.26,0H440l-.5,1.73a.56.56,0,0,1-.53.4h-50.5Zm24.17,5v5.27H401.79V72.13Zm0,6.12v.85H401.79v-.85Zm0,21.17H401.79V90.23h11.93Zm-11.93.85h11.93v10.24H401.79Zm11.93-10.89H401.79V79.95h11.93Zm-12.78-9.43v30.56h-8.86V79.95Zm.85,31.41h11.93v3.09c-4.15.09-8.16.21-11.93.36Zm93.09,1.58H473.1a4.71,4.71,0,0,1,.26-.85h20.54Zm-22,1.63c0-.28,0-.53.07-.78h22.9l.9.78Zm20-3.33h-19a3.19,3.19,0,0,1,1.75-.78H492Zm-17.34-3.61-.22,0a5.49,5.49,0,0,0-4.38,2.86H414.56V79.95h20.51c.32.21.63.42.92.63a3.24,3.24,0,0,0,1.89.6,3.37,3.37,0,0,0,2.49-1.22h14.82l32,27.69ZM452.26,77.39H441.81L445.3,71a2.49,2.49,0,0,0,.71,1Zm6.27-14.14-11.42,4.39,1.34-2.46,6.28-2.46v0l0,0L460,46.5h4.16Zm5.58-17.6H429.22V45h34.65Zm-58.5-3.58c.6,0,2.83.25,2.83,1.48v.58h-5.67v-.58C402.78,42.11,405.32,42.07,405.61,42.07ZM380.1,45h48.27v.68H411l-1,1.53H389.28c-2,0-5.19-.16-9.18-.47ZM273,19.78A5.55,5.55,0,0,1,276.53,21l3.49,2.9h-90l5-4.15H273Zm-73.73-3.44,2.68-.23a1.69,1.69,0,0,0,1.11-.57H224.8c5,0,7.66-2.33,12.1-6.18l.35-.3h19v9.88H220.12V16.6H199Zm14.54-8.7h9l-.18.57H212A2.5,2.5,0,0,1,213.82,7.64Zm1.57-1.42h7.91l-.18.57h-8l0-.07A3.49,3.49,0,0,1,215.39,6.22Zm18.24-.85H216a6.54,6.54,0,0,1,1.85-1.26h13.87A6.39,6.39,0,0,1,233.63,5.37Zm-7.32.85h7.95a2.56,2.56,0,0,1,.17.41l0,.16h-8Zm-2.12,0h1.23l.63,2h-2.47Zm2.75,2-.18-.57h8.94l.48.07-.87.5Zm9,.85c-4.05,3.51-6.64,5.63-11.14,5.63h-.93c3.74-1.14,7.34-3.11,11.68-5.63Zm-29.76,8.39-.56,1.49h-6l.56-1.49Zm.91,0h2.52l-.56,1.49h-2.52Zm3.43,0h8.74v1.49H210Zm-11.21,0-.56,1.49h-2.63l1.8-1.49Zm55.31-11.9a.91.91,0,0,1,.87.66h-1.73A.91.91,0,0,1,254.63,5.55ZM229.16,3.26h-8.68a20.52,20.52,0,0,1,4.32-.42A20.82,20.82,0,0,1,229.16,3.26ZM210.1,10.19l.74-.12.32-.68c.06-.12.11-.22.17-.33h22.52c-5,2.89-9.1,5-13.78,5.63H203.6A9.16,9.16,0,0,1,210.1,10.19ZM181.16,30.75A9,9,0,0,1,183.06,29a1.2,1.2,0,0,1,.22-.11h86.29A53.72,53.72,0,0,1,280,30c1.44.32,2.86.71,4.22,1.16l1.22,1.27a60.31,60.31,0,0,0-10.52-.9H180.36A4.13,4.13,0,0,0,181.16,30.75Zm-21.81,1.57a1.36,1.36,0,0,1,.43-.07l18,.12a4,4,0,0,0,1.62-.32v.33h95.47a62,62,0,0,1,11.49,1.07l.21.21a.83.83,0,0,0,1.17,0l1.45.29a1.4,1.4,0,0,0,.74.24l.26,0h0l2.71.54,2.81.57H149.66C153.07,34.35,156.33,33.35,159.36,32.32ZM101.2,45.41h20.85c-3.87.69-7.57,1.29-10.83,1.77H89.16C93,46.66,97,46.07,101.2,45.41ZM60.33,50h.8l-1.06,2.13H3.44L2.83,50ZM8.27,68.88l-.49-1.71H60.06l1.06,2.13H8.81A.57.57,0,0,1,8.27,68.88Zm131.15,3.25a121.41,121.41,0,0,1,11.78,3.28h-4.61c-4-1.26-7.92-2.36-11.69-3.28ZM185.88,91.6a94,94,0,0,0,15.71,1.65v1.67l3.71,3h-1.74l-.45-.32-.31-.05A162.26,162.26,0,0,1,187,93.92Zm50.36,12H213.36a18.21,18.21,0,0,1-1.65-1.21l-.33-.27h12l.11,1h2.7l.11-1h12l-.33.27A18.21,18.21,0,0,1,236.25,103.61Zm-21.47.85h20.06a19.54,19.54,0,0,1-1.8.85H216.57A19.54,19.54,0,0,1,214.77,104.46Zm-2.33-9.32-.54,2h-6.15l-2.52-2Zm5.94,0h12.83l4.24,2.73H214.14Zm3.91-3h5V93.5h-5Zm3.49,6.54-.39,3.54h-1.18l-.39-3.54Zm-2.82,0,.09.85H206l-1.21-.85Zm.19,1.7.09.85H208.39l-1.21-.85Zm3.2.85.09-.85h16l-1.21.85Zm.19-1.7.09-.85h18.19l-1.21.85Zm11.16-2.43-.54-2h9.21l-2.52,2Zm9.46-2.85h-1.9v-1l1.9,0Zm-2.75,0h-3.63V93.23h.14c.72,0,1.44,0,2.16,0l1.33,0Zm-4.48,0H237V93.12c1,.08,1.93.1,2.9.11ZM237,97.86l-5.25-3.38V91.7A11.8,11.8,0,0,0,236.18,93v1.69Zm-6.1-3.57h-2.76v-2.9h2.76Zm-9.47,0h-2.76v-2.9h2.76Zm-3.61.19-5.25,3.38.82-3V93a11.8,11.8,0,0,0,4.42-1.32Zm-5.26-.19h-2.9V93.22c1,0,1.94,0,2.9-.11Zm-3.75,0h-3.63v-1l1.33,0c.72,0,1.44,0,2.16,0h.14Zm-4.48,0h-1.9v-1l1.9,0ZM219,106.16h11.54a21.77,21.77,0,0,1-11.54,0Zm27.43-8.58-.42.3H244.3l3.71-3V93.24a55.9,55.9,0,0,0,9-.92l-.19.55h-.05l-.94,2.68Zm27.41-10.75-.1,0a47.1,47.1,0,0,1-16,5.83l.54-1.54-.75.17a63,63,0,0,1-14.45,1.07c-.73,0-1.45,0-2.18,0-3.51,0-6.82,0-9.34-1.76l-.11-.07H218.13l-.11.07c-2.52,1.74-5.83,1.75-9.34,1.76-.73,0-1.46,0-2.18,0a96.88,96.88,0,0,1-21.06-1.77h0l-.69-.15a29.27,29.27,0,0,1-8.9-3.6l-.1,0q-3.78-1.78-7.62-3.42h4.72a6,6,0,0,1,1.06.95l.13.18h12.68l-.8-.74-.45-.39h78.69l-.45.39-.8.74h12.68l.13-.18a6,6,0,0,1,1.06-.95h4.72Q277.66,85,273.87,86.83Zm52.22-14.11a6.21,6.21,0,0,0-2.85,2.64l0,.06h0l-.32,1.28L311.06,76A139.43,139.43,0,0,1,326.09,72.72Zm1.58,2.7h-3.5c.63-1,2.8-3.29,9.38-3.29h67.38v5.27H331.59l-2.95-1.7A2,2,0,0,0,327.67,75.43Zm11.79,6.51,2.15-2h49.62v30.56h-4a2.26,2.26,0,0,0-1.07-1.54Zm46.61,34.76c9.67-1,24.67-1.44,40.08-1.59-14.15.67-27.5,1.7-36.29,3.4v0l-6.61-1.1A25.24,25.24,0,0,1,386.07,116.7Zm-1.76,3.74,2.72.45v0h-2.72Zm2.72,1.35v.85h-4.4v-.85Zm-4.4,1.7H387v.85h-4.4Zm1.68,2.91v-1.2H387v.08Zm2.93,15.16h.37v3.89l-5.11.44v5.18l5.11-.44v16.25l-21.28,1.82V144.62Zm-24.26,7v53.18l-1.67-.2V148.77Zm-3.12.37.6-.07v52.58l-.6-.07Zm4,52.91V148.47h0v-2h1.61v57.38h-1.61v-2ZM384,212.51l4.71,1v4l-.23-.06C385.83,216.7,384.74,215.51,384,212.51Zm17.27,9.16c-2.56-.37-5.62-.93-9.24-1.7v-9.41h.32l4.58,3v.88l.19.13c5.44,3.67,14.47,6.1,24.82,6.69v1.89A129.81,129.81,0,0,1,401.24,221.66Zm125.47,1.58c-7.12.7-14.48,1.42-21.91,1.93q-5.69.39-11.47.63V215H532.4v7.66Zm8.24-.79-1.7.16V215h40.06v2.48C559.69,219,546.38,220.69,534.95,222.45ZM599.41,215c-8.27.68-16.81,1.49-25.25,2.39V215Zm3.25-.85H518.31v-3H457a319.7,319.7,0,0,1-38.64-2V197H621.72C611.06,202,604.26,207.83,602.66,214.19Zm20.95-18h-8.7V173h51.15v12C649.1,187.59,634.52,191.44,623.61,196.19Zm62.22-10.54-2.09,1.48H675.2l-.23-.46q5.32-.63,10.86-1.08Zm-1.76-15.32.21,3.83h-.44a1,1,0,0,1-.9-1.42Zm1.06,3.83-.3-5.46,2.43-5.17,1.56,10.62Zm4.54,0-1.76-12,1.2-2.55L693,174.15Zm4.23,0-4.23-15.77,1-2.15h.06l6.33,17.92ZM695,153.4h-1.6l.44-.54h1.6Zm1.61,0h-.51L697.2,152h-3.8l-1.14,1.39h-1c.46-1.17,1-2,1.31-2h5.49A3.15,3.15,0,0,1,696.58,153.4Zm1.4,20.75-6.33-17.92h1.13l8,17.92Zm3.77,0-8-17.92h.48l9.39,17.92Zm2.79,0-9.39-17.92h.25l10.88,17.92Zm2.73,0-10.88-17.92h.27l11.66,17.92Zm2.06,0L698.16,157l12.13,17.15Zm-21.86-27.24,4,.16v1.72h-4Zm-45.55-3.29c15.55,1.51,30.83,2.62,44.7,3.25v2.77h5.67v-2.54l1.74.07a9.46,9.46,0,0,1,3.73,3.34h-5.23c-.94.18-1.66,1.57-2.14,2.88h-1.5l-8.51,18.13a3.83,3.83,0,0,0,3.47,5.46h31.28L714,181.57a333.29,333.29,0,0,0-46.63,3.28l16.24-27.29v-7H418.37V130.71c8.94-3.21,53.26-4.33,92.84-3.77v-.11l.6.45.37,0,23.9,3.18a33.87,33.87,0,0,1-14.64,5.4l-1.2.14,1,.65C532.65,143.84,546.11,147,567.6,147c6,0,12.54-.24,19.85-.71l3.41-.22-3.36-.62a10.27,10.27,0,0,1-1.67-.45l-.06-4.35a16.69,16.69,0,0,1,6-2.9l3.26.41C616.47,140.86,631.36,142.59,641.91,143.62Zm-49-7.3h-3.51c-12.35,0-29.69,0-40-1.56L653.93,63.91h59.51V75.13h-42L604,120.84l18.42,0,116.17-56.9h2.09Zm15.24-17.23H624l-1.79.88-15.45,0Zm17.65-.85h-16.4l1.29-.87h16.9Zm3.52-1.72H611.9l1.29-.87h17.87Zm3.52-1.72H614.45l1.29-.87h18.85Zm3.52-1.72H617l1.29-.87h19.82Zm3.52-1.72h-20.3l1.29-.87h20.8Zm3.52-1.72H622.08l1.29-.87h21.77Zm3.52-1.72H624.63l1.29-.87h22.75Zm3.52-1.72H627.17l1.29-.87h23.72Zm3.52-1.72h-24.2l1.29-.87h24.7Zm3.52-1.72H632.27l1.29-.87h25.67ZM661,101H634.81l1.29-.87h26.65Zm3.52-1.72H637.36l1.29-.87h27.62ZM668,97.55H639.9l1.29-.87h28.6Zm3.52-1.72H642.45l1.29-.87h29.57ZM675,94.1H645l1.29-.87h30.55Zm3.52-1.72h-31l1.29-.87h31.52Zm3.52-1.72h-32l1.29-.87h32.5Zm3.52-1.72h-33l1.29-.87h33.47Zm3.52-1.72h-34l1.29-.87h34.45Zm3.52-1.72H657.72l1.29-.87h35.42Zm3.52-1.72h-35.9l1.29-.87h36.4ZM699.68,82H662.81l1.29-.87h37.37Zm3.52-1.72H665.35l1.29-.87H705Zm3.52-1.72H667.9l1.29-.87h39.32Zm3.52-1.72h-39.8l1.29-.87H712ZM753,53.62c-1.91-2.3-5.78-3.87-10.25-3.87H608.32c-4.47,0-8.35,1.58-10.25,3.87H525V45.14H511c-3.21,0-4.85-3.15-5.63-4.66L494.66,19.9H521a2,2,0,0,0-.18.23,2.87,2.87,0,0,0,.31,3L531,42.23c1.54,3,3.83,4.22,7.68,4.22h60.53l-1.79-1.95H807.56c14.31,0,26.94,0,34,2.24-10.71,4.76-16.36,6.87-30.53,6.87Zm177.48.46h2.53l-.62.66C931.88,54.54,931.23,54.31,930.52,54.08Zm-375.77,68.4v-2.31a.57.57,0,0,1,.25-.47l10.71-7.24a.57.57,0,0,1,.89.47v2.31a.57.57,0,0,1-.25.47L555.64,123A.57.57,0,0,1,554.76,122.48ZM545.06,129v-2.31a.57.57,0,0,1,.25-.47l4.3-2.91a.57.57,0,0,1,.89.47v2.31a.57.57,0,0,1-.25.47l-4.3,2.91A.57.57,0,0,1,545.06,129Zm25.79-17.45v-2.31a.57.57,0,0,1,.25-.47l65.75-44.47a.57.57,0,0,1,.89.47v2.31a.57.57,0,0,1-.25.47l-65.75,44.47A.57.57,0,0,1,570.86,111.59Z"/></svg>